<svg width="24" height="24" viewBox="0 0 24 24" fill="none" xmlns="http://www.w3.org/2000/svg">
<path fill-rule="evenodd" clip-rule="evenodd" d="M20.4225 11.9951C20.7154 12.288 20.7154 12.7628 20.4225 13.0557L19.7873 13.6909C19.4944 13.9838 19.0195 13.9838 18.7266 13.6909C18.4337 13.398 18.4337 12.9231 18.7266 12.6303L19.3618 11.9951C19.6547 11.7022 20.1296 11.7022 20.4225 11.9951Z" fill="white" fill-opacity="0.9"/>
<path fill-rule="evenodd" clip-rule="evenodd" d="M13.6908 18.7268C13.9837 19.0196 13.9837 19.4945 13.6908 19.7874L13.0556 20.4226C12.7627 20.7155 12.2878 20.7155 11.9949 20.4226C11.7021 20.1297 11.7021 19.6548 11.9949 19.3619L12.6301 18.7268C12.923 18.4339 13.3979 18.4339 13.6908 18.7268Z" fill="white" fill-opacity="0.9"/>
<path fill-rule="evenodd" clip-rule="evenodd" d="M16.2087 10.2497C16.6229 10.2497 16.9587 10.5855 16.9587 10.9997V11.898C16.9587 12.3122 16.6229 12.648 16.2087 12.648C15.7945 12.648 15.4587 12.3122 15.4587 11.898V10.9997C15.4587 10.5855 15.7945 10.2497 16.2087 10.2497Z" fill="white" fill-opacity="0.9"/>
<path fill-rule="evenodd" clip-rule="evenodd" d="M11.9949 11.9951C12.2878 11.7022 12.7627 11.7022 13.0556 11.9951L13.6908 12.6303C13.9837 12.9231 13.9837 13.398 13.6908 13.6909C13.3979 13.9838 12.923 13.9838 12.6301 13.6909L11.9949 13.0557C11.7021 12.7628 11.7021 12.288 11.9949 11.9951Z" fill="white" fill-opacity="0.9"/>
<path fill-rule="evenodd" clip-rule="evenodd" d="M10.2495 16.2088C10.2495 15.7946 10.5853 15.4588 10.9995 15.4588H11.8978C12.312 15.4588 12.6478 15.7946 12.6478 16.2088C12.6478 16.623 12.312 16.9588 11.8978 16.9588H10.9995C10.5853 16.9588 10.2495 16.623 10.2495 16.2088Z" fill="white" fill-opacity="0.9"/>
<path fill-rule="evenodd" clip-rule="evenodd" d="M15.0786 15.0787C15.4277 14.7296 15.9441 14.6077 16.4125 14.7638L20.8623 16.2471C21.3452 16.4081 21.6903 16.8354 21.7458 17.3414C21.8014 17.8474 21.5573 18.3395 21.1208 18.6014L19.6226 19.5003C19.5724 19.5304 19.5303 19.5725 19.5002 19.6227L18.6013 21.1209C18.3394 21.5574 17.8474 21.8015 17.3414 21.7459C16.8353 21.6904 16.408 21.3454 16.247 20.8624L14.7637 16.4126C14.6076 15.9442 14.7295 15.4278 15.0786 15.0787ZM16.311 16.3111L19.9826 17.535L18.8509 18.214C18.5895 18.3709 18.3708 18.5896 18.214 18.851L17.5349 19.9827L16.311 16.3111Z" fill="white" fill-opacity="0.9"/>
<path fill-rule="evenodd" clip-rule="evenodd" d="M18.4932 18.4933C18.7861 18.2004 19.261 18.2004 19.5539 18.4933L21.2499 20.1894C21.5428 20.4823 21.5428 20.9572 21.2499 21.2501C20.9571 21.543 20.4822 21.543 20.1893 21.2501L18.4932 19.554C18.2003 19.2611 18.2003 18.7862 18.4932 18.4933Z" fill="white" fill-opacity="0.9"/>
<path fill-rule="evenodd" clip-rule="evenodd" d="M2.24622 6.998C2.24622 6.58379 2.582 6.248 2.99622 6.248H21.0037C21.4179 6.248 21.7537 6.58379 21.7537 6.998C21.7537 7.41222 21.4179 7.748 21.0037 7.748H2.99622C2.582 7.748 2.24622 7.41222 2.24622 6.998Z" fill="white" fill-opacity="0.9"/>
<path fill-rule="evenodd" clip-rule="evenodd" d="M5.99747 3.74634C4.75413 3.74634 3.74622 4.75426 3.74622 5.99759V14.0009C3.74622 15.2443 4.75413 16.2522 5.99747 16.2522H6.99788C7.4121 16.2522 7.74788 16.588 7.74788 17.0022C7.74788 17.4164 7.4121 17.7522 6.99788 17.7522H5.99747C3.92571 17.7522 2.24622 16.0727 2.24622 14.0009V5.99759C2.24622 3.92583 3.92571 2.24634 5.99747 2.24634H18.0025C20.0742 2.24634 21.7537 3.92583 21.7537 5.99759V8.99884C21.7537 9.41305 21.4179 9.74884 21.0037 9.74884C20.5895 9.74884 20.2537 9.41305 20.2537 8.99884V5.99759C20.2537 4.75426 19.2458 3.74634 18.0025 3.74634H5.99747Z" fill="white" fill-opacity="0.9"/>
</svg>
