<svg width="586" height="349" viewBox="0 0 586 349" fill="none" xmlns="http://www.w3.org/2000/svg">
<g clip-path="url(#clip0_403_9394)">
<g clip-path="url(#clip1_403_9394)">
<rect width="424.8" height="298.536" transform="translate(78.8 38.7745)" fill="#2D66C4"/>
<path fill-rule="evenodd" clip-rule="evenodd" d="M-340.227 361.681L-340.227 484.006H-338.844L-338.844 361.681H-261.131V484.006H-259.748V361.681H-182.035V484.006H-180.652V361.681H-102.94V484.006H-101.556V361.681H-25.0418V484.006H-23.6585V361.681H54.0537V484.006H55.437V361.681H133.149V484.006H134.533V361.681H212.245V484.006H213.629V361.681H290.143V484.006H291.526V361.681H369.239V484.006H370.622V361.681H448.335V484.006H449.718V361.681H526.232V484.006H527.615V361.681H605.328V484.006H606.711V361.681H684.423V484.006H685.807V361.681H763.519V484.006H764.902V361.681H841.417V484.006H842.8V361.681H920.512V484.006H921.896V361.681H1030.77V360.298H921.896V282.263H1030.77V280.88H921.896V202.846H1030.77V201.463H921.896V123.429H1030.77V122.045H921.896V44.0115H1030.77V42.6281H921.896V-35.4058H1030.77V-36.7892H921.896V-114.823H1030.77V-116.206H921.896V-194.241H1030.77V-195.624H921.896V-308.15H920.512V-195.624H842.8V-308.15H841.417V-195.624H764.902V-308.15H763.519V-195.624H685.807V-308.15H684.423V-195.624H606.711V-308.15H605.328V-195.624H527.615V-308.15H526.232V-195.624H449.718V-308.15H448.335V-195.624H370.622V-308.15H369.239V-195.624H291.526V-308.15H290.143V-195.624H213.629V-308.15H212.245V-195.624H134.533V-308.15H133.149V-195.624H55.4371V-308.15H54.0537V-195.624H-23.6585V-308.15H-25.0418V-195.624H-101.556V-308.15H-102.94V-195.624H-180.652V-308.15H-182.035V-195.624H-259.748V-308.15H-261.131V-195.624H-338.844L-338.844 -308.15H-340.227L-340.227 -195.624H-449.283V-194.241H-340.227V-116.206H-449.283V-114.823H-340.227L-340.227 -36.7892H-449.283V-35.4058H-340.227V42.6281H-449.283V44.0115H-340.227L-340.227 122.045H-449.283V123.429H-340.227V201.463H-449.283V202.846H-340.227L-340.227 280.88H-449.283V282.263H-340.227V360.298H-449.283V361.681H-340.227ZM920.512 -194.241H842.8V-116.206H920.512V-194.241ZM920.512 -114.823H842.8V-36.7892H920.512V-114.823ZM920.512 -35.4058H842.8V42.6281H920.512V-35.4058ZM920.512 44.0115H842.8V122.045H920.512V44.0115ZM920.512 123.429H842.8V201.463H920.512V123.429ZM920.512 202.846H842.8V280.88H920.512V202.846ZM920.512 282.263H842.8V360.298H920.512V282.263ZM841.417 282.263V360.298H764.902V282.263H841.417ZM841.417 202.846V280.88H764.902V202.846H841.417ZM841.417 123.429V201.463H764.902V123.429H841.417ZM841.417 44.0115V122.045H764.902V44.0115H841.417ZM841.417 -35.4058V42.6281H764.902V-35.4058H841.417ZM841.417 -114.823V-36.7892H764.902V-114.823H841.417ZM841.417 -194.241V-116.206H764.902V-194.241H841.417ZM763.519 -194.241H685.807V-116.206H763.519V-194.241ZM763.519 -114.823H685.807V-36.7892H763.519V-114.823ZM763.519 -35.4058H685.807V42.6281H763.519V-35.4058ZM763.519 44.0115H685.807V122.045H763.519V44.0115ZM763.519 123.429H685.807V201.463H763.519V123.429ZM763.519 202.846H685.807V280.88H763.519V202.846ZM763.519 282.263H685.807V360.298H763.519V282.263ZM684.423 282.263V360.298H606.711V282.263H684.423ZM684.423 202.846V280.88H606.711V202.846H684.423ZM684.423 123.429V201.463H606.711V123.429H684.423ZM684.423 44.0115V122.045H606.711V44.0115H684.423ZM684.423 -35.4058V42.6281H606.711V-35.4058H684.423ZM684.423 -114.823V-36.7892H606.711V-114.823H684.423ZM684.423 -194.241V-116.206H606.711V-194.241H684.423ZM605.328 -194.241H527.615V-116.206H605.328V-194.241ZM605.328 -114.823H527.615V-36.7892H605.328V-114.823ZM605.328 -35.4058H527.615V42.6281H605.328V-35.4058ZM605.328 44.0115H527.615L527.615 122.045H605.328V44.0115ZM605.328 123.429H527.615V201.463H605.328V123.429ZM605.328 202.846H527.615V280.88H605.328V202.846ZM605.328 282.263H527.615V360.298H605.328V282.263ZM526.232 282.263V360.298H449.718V282.263H526.232ZM526.232 202.846V280.88H449.718V202.846H526.232ZM526.232 123.429V201.463H449.718V123.429H526.232ZM526.232 44.0115L526.232 122.045H449.718L449.718 44.0115H526.232ZM526.232 -35.4058V42.6281H449.718V-35.4058H526.232ZM526.232 -114.823V-36.7892H449.718V-114.823H526.232ZM526.232 -194.241V-116.206H449.718V-194.241H526.232ZM448.335 -194.241H370.622V-116.206H448.335V-194.241ZM448.335 -114.823H370.622V-36.7892H448.335V-114.823ZM448.335 -35.4058H370.622V42.6281H448.335V-35.4058ZM448.335 44.0115H370.622L370.622 122.045H448.335L448.335 44.0115ZM448.335 123.429H370.622V201.463H448.335V123.429ZM448.335 202.846H370.622V280.88H448.335V202.846ZM448.335 282.263H370.622V360.298H448.335V282.263ZM369.239 282.263V360.298H291.526V282.263H369.239ZM369.239 202.846V280.88H291.526V202.846H369.239ZM369.239 123.429V201.463H291.526V123.429H369.239ZM369.239 44.0115L369.239 122.045H291.526L291.526 44.0115H369.239ZM369.239 -35.4058V42.6281H291.526V-35.4058H369.239ZM369.239 -114.823V-36.7892H291.526V-114.823H369.239ZM369.239 -194.241V-116.206H291.526V-194.241H369.239ZM290.143 -194.241H213.629V-116.206H290.143V-194.241ZM290.143 -114.823H213.629V-36.7892H290.143V-114.823ZM290.143 -35.4058H213.629V42.6281H290.143V-35.4058ZM290.143 44.0115H213.629L213.629 122.045H290.143L290.143 44.0115ZM290.143 123.429H213.629V201.463H290.143V123.429ZM290.143 202.846H213.629V280.88H290.143V202.846ZM290.143 282.263H213.629V360.298H290.143V282.263ZM212.245 282.263V360.298H134.533V282.263H212.245ZM212.245 202.846V280.88H134.533V202.846H212.245ZM212.245 123.429V201.463H134.533V123.429H212.245ZM212.245 44.0115L212.245 122.045H134.533L134.533 44.0115H212.245ZM212.245 -35.4058V42.6281H134.533V-35.4058H212.245ZM212.245 -114.823V-36.7892H134.533V-114.823H212.245ZM212.245 -194.241V-116.206H134.533V-194.241H212.245ZM133.149 -194.241H55.4371V-116.206H133.149V-194.241ZM133.149 -114.823H55.4371V-36.7892H133.149V-114.823ZM133.149 -35.4058H55.4371V42.6281H133.149V-35.4058ZM133.149 44.0115H55.4371L55.437 122.045H133.149L133.149 44.0115ZM133.149 123.429H55.437V201.463H133.149V123.429ZM133.149 202.846H55.437V280.88H133.149V202.846ZM133.149 282.263H55.437V360.298H133.149V282.263ZM54.0537 282.263V360.298H-23.6585V282.263H54.0537ZM54.0537 202.846V280.88H-23.6585V202.846H54.0537ZM54.0537 123.429V201.463H-23.6585V123.429H54.0537ZM54.0537 44.0115L54.0537 122.045H-23.6585L-23.6585 44.0115H54.0537ZM54.0537 -35.4058V42.6281H-23.6585V-35.4058H54.0537ZM54.0537 -114.823V-36.7892H-23.6585V-114.823H54.0537ZM54.0537 -194.241V-116.206H-23.6585V-194.241H54.0537ZM-25.0418 -194.241H-101.556V-116.206H-25.0418V-194.241ZM-25.0418 -114.823H-101.556V-36.7892H-25.0418V-114.823ZM-25.0418 -35.4058H-101.556V42.6281H-25.0418V-35.4058ZM-25.0418 44.0115H-101.556L-101.556 122.045H-25.0418L-25.0418 44.0115ZM-25.0418 123.429H-101.556V201.463H-25.0418V123.429ZM-25.0418 202.846H-101.556V280.88H-25.0418V202.846ZM-25.0418 282.263H-101.556V360.298H-25.0418V282.263ZM-102.94 282.263V360.298H-180.652V282.263H-102.94ZM-102.94 202.846V280.88H-180.652V202.846H-102.94ZM-102.94 123.429V201.463H-180.652V123.429H-102.94ZM-102.94 44.0115L-102.94 122.045H-180.652L-180.652 44.0115H-102.94ZM-102.94 -35.4058V42.6281H-180.652V-35.4058H-102.94ZM-102.94 -114.823V-36.7892H-180.652V-114.823H-102.94ZM-102.94 -194.241V-116.206H-180.652V-194.241H-102.94ZM-182.035 -194.241H-259.748V-116.206H-182.035V-194.241ZM-182.035 -114.823H-259.748L-259.748 -36.7892H-182.035V-114.823ZM-182.035 -35.4058H-259.748V42.6281H-182.035V-35.4058ZM-182.035 44.0115H-259.748V122.045H-182.035L-182.035 44.0115ZM-182.035 123.429H-259.748V201.463H-182.035V123.429ZM-182.035 202.846H-259.748V280.88H-182.035V202.846ZM-182.035 282.263H-259.748L-259.748 360.298H-182.035V282.263ZM-261.131 282.263L-261.131 360.298H-338.844V282.263H-261.131ZM-261.131 202.846V280.88H-338.844L-338.844 202.846H-261.131ZM-261.131 123.429V201.463H-338.844V123.429H-261.131ZM-261.131 44.0115L-261.131 122.045H-338.844L-338.844 44.0115H-261.131ZM-261.131 -35.4058V42.6281H-338.844V-35.4058H-261.131ZM-261.131 -114.823V-36.7892H-338.844L-338.844 -114.823H-261.131ZM-261.131 -194.241L-261.131 -116.206H-338.844V-194.241H-261.131Z" fill="url(#paint0_radial_403_9394)"/>
<g style="mix-blend-mode:screen" opacity="0.2">
<circle cx="262.275" cy="188.299" r="64.1583" fill="white" fill-opacity="0.4"/>
</g>
<ellipse opacity="0.2" cx="261.252" cy="187.083" rx="46.6875" ry="47.0333" fill="white" fill-opacity="0.6"/>
<circle cx="261.129" cy="187.154" r="9.16547" fill="white" fill-opacity="0.6"/>
<g style="mix-blend-mode:screen" opacity="0.2">
<circle cx="335.413" cy="107.195" r="19.0208" fill="white" fill-opacity="0.4"/>
</g>
<circle opacity="0.2" cx="334.98" cy="106.763" r="12.1042" fill="white" fill-opacity="0.6"/>
<circle cx="334.98" cy="106.763" r="6.05208" fill="white" fill-opacity="0.6"/>
<g style="mix-blend-mode:screen" opacity="0.2">
<circle cx="186.704" cy="297.404" r="44.6125" fill="white" fill-opacity="0.4"/>
</g>
<circle opacity="0.2" cx="185.846" cy="296.546" r="24.0221" fill="white" fill-opacity="0.6"/>
<circle cx="185.846" cy="296.546" r="12.0111" fill="white" fill-opacity="0.6"/>
<g style="mix-blend-mode:color-burn">
<rect width="424.8" height="298.536" transform="translate(78.8 38.7745)" fill="#2E71E5" fill-opacity="0.1"/>
</g>
</g>
</g>
<g filter="url(#filter0_dddd_403_9394)">
<path d="M352.4 143.393C352.4 136.765 357.773 131.393 364.4 131.393H542C548.627 131.393 554 136.765 554 143.393V256.072C554 262.699 548.627 268.072 542 268.072H364.4C357.773 268.072 352.4 262.699 352.4 256.072V143.393Z" fill="#171C2F"/>
<path d="M364.4 131.893H542C548.351 131.893 553.5 137.041 553.5 143.393V256.071C553.5 262.423 548.351 267.571 542 267.571H364.4C358.049 267.571 352.9 262.423 352.9 256.071V143.393C352.9 137.041 358.049 131.893 364.4 131.893Z" stroke="#2B324A"/>
<path d="M505.032 160.794V154.488H506.478L506.606 155.556C506.803 155.183 507.084 154.887 507.451 154.666C507.827 154.446 508.266 154.336 508.77 154.336C509.555 154.336 510.165 154.581 510.6 155.073C511.035 155.565 511.253 156.285 511.253 157.234V160.794H509.614V157.387C509.614 156.845 509.503 156.429 509.282 156.141C509.06 155.853 508.714 155.709 508.245 155.709C507.784 155.709 507.404 155.87 507.106 156.192C506.815 156.514 506.67 156.963 506.67 157.54V160.794H505.032Z" fill="#BEC2D3"/>
<path d="M496.011 160.794L494.155 154.488H495.781L496.882 159.027L498.162 154.488H499.979L501.259 159.027L502.373 154.488H503.998L502.13 160.794H500.427L499.07 156.077L497.714 160.794H496.011Z" fill="#BEC2D3"/>
<path d="M490.278 160.947C489.664 160.947 489.109 160.807 488.614 160.527C488.128 160.248 487.74 159.862 487.45 159.37C487.168 158.87 487.027 158.294 487.027 157.641C487.027 156.989 487.172 156.416 487.462 155.925C487.753 155.425 488.141 155.035 488.627 154.755C489.122 154.475 489.677 154.336 490.291 154.336C490.897 154.336 491.443 154.475 491.93 154.755C492.425 155.035 492.813 155.425 493.094 155.925C493.385 156.416 493.53 156.989 493.53 157.641C493.53 158.294 493.385 158.87 493.094 159.37C492.813 159.862 492.425 160.248 491.93 160.527C491.435 160.807 490.884 160.947 490.278 160.947ZM490.278 159.536C490.705 159.536 491.076 159.379 491.392 159.065C491.708 158.743 491.866 158.269 491.866 157.641C491.866 157.014 491.708 156.544 491.392 156.23C491.076 155.908 490.709 155.747 490.291 155.747C489.856 155.747 489.481 155.908 489.165 156.23C488.858 156.544 488.704 157.014 488.704 157.641C488.704 158.269 488.858 158.743 489.165 159.065C489.481 159.379 489.852 159.536 490.278 159.536Z" fill="#BEC2D3"/>
<path d="M481.8 160.947C481.203 160.947 480.67 160.803 480.2 160.515C479.731 160.227 479.36 159.832 479.087 159.332C478.814 158.832 478.677 158.264 478.677 157.629C478.677 156.993 478.814 156.429 479.087 155.938C479.36 155.437 479.731 155.048 480.2 154.768C480.67 154.48 481.203 154.336 481.8 154.336C482.278 154.336 482.696 154.425 483.055 154.603C483.413 154.781 483.703 155.031 483.925 155.353V151.64H485.564V160.794H484.104L483.925 159.892C483.72 160.171 483.447 160.417 483.106 160.629C482.773 160.841 482.338 160.947 481.8 160.947ZM482.146 159.523C482.675 159.523 483.106 159.349 483.439 159.002C483.78 158.646 483.951 158.192 483.951 157.641C483.951 157.09 483.78 156.641 483.439 156.294C483.106 155.938 482.675 155.76 482.146 155.76C481.626 155.76 481.195 155.933 480.853 156.281C480.512 156.628 480.341 157.078 480.341 157.629C480.341 158.18 480.512 158.633 480.853 158.989C481.195 159.345 481.626 159.523 482.146 159.523Z" fill="#BEC2D3"/>
<path d="M472.132 160.794V151.64H473.77V157.044L476.023 154.488H477.969L475.37 157.362L478.391 160.794H476.343L473.77 157.629V160.794H472.132Z" fill="#BEC2D3"/>
<path d="M466.933 160.947C466.387 160.947 465.939 160.862 465.589 160.693C465.239 160.515 464.979 160.282 464.808 159.993C464.638 159.705 464.552 159.387 464.552 159.04C464.552 158.455 464.783 157.98 465.244 157.616C465.704 157.251 466.396 157.069 467.317 157.069H468.93V156.917C468.93 156.484 468.806 156.166 468.559 155.963C468.311 155.76 468.004 155.658 467.637 155.658C467.304 155.658 467.014 155.738 466.767 155.899C466.519 156.052 466.366 156.281 466.306 156.586H464.706C464.749 156.128 464.902 155.73 465.167 155.391C465.44 155.052 465.79 154.793 466.216 154.615C466.643 154.429 467.121 154.336 467.65 154.336C468.555 154.336 469.267 154.56 469.788 155.009C470.308 155.459 470.568 156.094 470.568 156.917V160.794H469.173L469.02 159.777C468.832 160.116 468.567 160.396 468.226 160.616C467.893 160.837 467.462 160.947 466.933 160.947ZM467.304 159.676C467.774 159.676 468.136 159.523 468.392 159.218C468.657 158.913 468.823 158.536 468.892 158.086H467.496C467.061 158.086 466.75 158.167 466.562 158.328C466.374 158.48 466.28 158.671 466.28 158.9C466.28 159.146 466.374 159.337 466.562 159.472C466.75 159.608 466.997 159.676 467.304 159.676Z" fill="#BEC2D3"/>
<path d="M460.179 160.947C459.539 160.947 458.972 160.811 458.477 160.54C457.982 160.269 457.594 159.887 457.312 159.396C457.031 158.904 456.89 158.336 456.89 157.692C456.89 157.039 457.026 156.459 457.299 155.95C457.581 155.442 457.965 155.048 458.451 154.768C458.946 154.48 459.527 154.336 460.192 154.336C460.815 154.336 461.366 154.471 461.843 154.742C462.321 155.014 462.692 155.387 462.957 155.861C463.23 156.327 463.367 156.849 463.367 157.425C463.367 157.518 463.362 157.616 463.354 157.718C463.354 157.819 463.35 157.925 463.341 158.035H458.515C458.55 158.527 458.72 158.913 459.027 159.192C459.343 159.472 459.723 159.612 460.167 159.612C460.499 159.612 460.777 159.54 460.999 159.396C461.229 159.243 461.4 159.048 461.511 158.811H463.175C463.055 159.209 462.855 159.574 462.573 159.904C462.3 160.227 461.959 160.481 461.549 160.667C461.148 160.854 460.691 160.947 460.179 160.947ZM460.192 155.658C459.791 155.658 459.437 155.772 459.13 156.001C458.823 156.222 458.626 156.561 458.541 157.018H461.703C461.677 156.603 461.523 156.272 461.242 156.027C460.96 155.781 460.61 155.658 460.192 155.658Z" fill="#BEC2D3"/>
<path d="M452.132 160.794V154.488H453.591L453.745 155.671C453.975 155.264 454.287 154.942 454.679 154.704C455.08 154.458 455.55 154.336 456.087 154.336V156.052H455.626C455.268 156.052 454.948 156.107 454.666 156.217C454.385 156.327 454.163 156.518 454.001 156.789C453.847 157.061 453.77 157.438 453.77 157.921V160.794H452.132Z" fill="#BEC2D3"/>
<path d="M444.095 160.794V151.894H447.692C448.622 151.894 449.331 152.111 449.817 152.543C450.312 152.967 450.559 153.513 450.559 154.183C450.559 154.742 450.406 155.192 450.099 155.531C449.8 155.861 449.433 156.086 448.998 156.205C449.51 156.306 449.932 156.561 450.265 156.967C450.598 157.366 450.764 157.832 450.764 158.366C450.764 159.07 450.508 159.65 449.996 160.108C449.484 160.566 448.759 160.794 447.82 160.794H444.095ZM445.734 155.632H447.449C447.91 155.632 448.264 155.526 448.511 155.315C448.759 155.103 448.883 154.802 448.883 154.412C448.883 154.039 448.759 153.746 448.511 153.535C448.273 153.314 447.91 153.204 447.423 153.204H445.734V155.632ZM445.734 159.472H447.564C448.051 159.472 448.426 159.362 448.691 159.142C448.964 158.913 449.1 158.595 449.1 158.188C449.1 157.773 448.959 157.446 448.678 157.209C448.396 156.972 448.017 156.853 447.539 156.853H445.734V159.472Z" fill="#BEC2D3"/>
<path d="M436.442 160.947C435.802 160.947 435.234 160.811 434.739 160.54C434.244 160.269 433.856 159.887 433.575 159.396C433.293 158.904 433.152 158.336 433.152 157.692C433.152 157.039 433.289 156.459 433.562 155.95C433.843 155.442 434.227 155.048 434.714 154.768C435.209 154.48 435.789 154.336 436.455 154.336C437.078 154.336 437.628 154.471 438.106 154.742C438.584 155.014 438.955 155.387 439.219 155.861C439.492 156.327 439.629 156.849 439.629 157.425C439.629 157.518 439.625 157.616 439.616 157.718C439.616 157.819 439.612 157.925 439.603 158.035H434.778C434.812 158.527 434.983 158.913 435.29 159.192C435.606 159.472 435.985 159.612 436.429 159.612C436.762 159.612 437.039 159.54 437.261 159.396C437.491 159.243 437.662 159.048 437.773 158.811H439.437C439.318 159.209 439.117 159.574 438.835 159.904C438.562 160.227 438.221 160.481 437.811 160.667C437.41 160.854 436.954 160.947 436.442 160.947ZM436.455 155.658C436.054 155.658 435.699 155.772 435.392 156.001C435.085 156.222 434.889 156.561 434.803 157.018H437.965C437.939 156.603 437.786 156.272 437.504 156.027C437.223 155.781 436.873 155.658 436.455 155.658Z" fill="#BEC2D3"/>
<path d="M428.792 160.947C428.144 160.947 427.572 160.807 427.077 160.527C426.582 160.248 426.19 159.858 425.9 159.358C425.618 158.858 425.477 158.285 425.477 157.641C425.477 156.997 425.618 156.425 425.9 155.925C426.19 155.425 426.582 155.035 427.077 154.755C427.572 154.475 428.144 154.336 428.792 154.336C429.603 154.336 430.286 154.547 430.84 154.971C431.395 155.387 431.749 155.963 431.903 156.7H430.175C430.089 156.395 429.919 156.158 429.663 155.988C429.415 155.81 429.121 155.721 428.78 155.721C428.327 155.721 427.943 155.891 427.628 156.23C427.312 156.569 427.154 157.039 427.154 157.641C427.154 158.243 427.312 158.714 427.628 159.053C427.943 159.392 428.327 159.561 428.78 159.561C429.121 159.561 429.415 159.476 429.663 159.307C429.919 159.137 430.089 158.896 430.175 158.582H431.903C431.749 159.294 431.395 159.866 430.84 160.299C430.286 160.731 429.603 160.947 428.792 160.947Z" fill="#BEC2D3"/>
<path d="M423.153 153.509C422.854 153.509 422.607 153.42 422.41 153.242C422.223 153.064 422.129 152.84 422.129 152.568C422.129 152.297 422.223 152.077 422.41 151.907C422.607 151.729 422.854 151.64 423.153 151.64C423.451 151.64 423.695 151.729 423.882 151.907C424.079 152.077 424.177 152.297 424.177 152.568C424.177 152.84 424.079 153.064 423.882 153.242C423.695 153.42 423.451 153.509 423.153 153.509ZM422.333 160.794V154.488H423.972V160.794H422.333Z" fill="#BEC2D3"/>
<path d="M416.91 160.794L414.58 154.488H416.295L417.908 159.256L419.521 154.488H421.236L418.894 160.794H416.91Z" fill="#BEC2D3"/>
<path d="M410.12 160.794V154.488H411.579L411.732 155.671C411.963 155.264 412.274 154.942 412.667 154.704C413.068 154.458 413.537 154.336 414.075 154.336V156.052H413.614C413.256 156.052 412.936 156.107 412.654 156.217C412.372 156.327 412.15 156.518 411.988 156.789C411.835 157.061 411.758 157.438 411.758 157.921V160.794H410.12Z" fill="#BEC2D3"/>
<path d="M405.554 160.947C404.914 160.947 404.347 160.811 403.852 160.54C403.357 160.269 402.969 159.887 402.687 159.396C402.406 158.904 402.265 158.336 402.265 157.692C402.265 157.039 402.401 156.459 402.674 155.95C402.956 155.442 403.34 155.048 403.826 154.768C404.321 154.48 404.902 154.336 405.567 154.336C406.19 154.336 406.741 154.471 407.218 154.742C407.696 155.014 408.067 155.387 408.332 155.861C408.605 156.327 408.742 156.849 408.742 157.425C408.742 157.518 408.737 157.616 408.729 157.718C408.729 157.819 408.725 157.925 408.716 158.035H403.89C403.925 158.527 404.095 158.913 404.402 159.192C404.718 159.472 405.098 159.612 405.542 159.612C405.874 159.612 406.152 159.54 406.374 159.396C406.604 159.243 406.775 159.048 406.886 158.811H408.55C408.43 159.209 408.23 159.574 407.948 159.904C407.675 160.227 407.334 160.481 406.924 160.667C406.523 160.854 406.066 160.947 405.554 160.947ZM405.567 155.658C405.166 155.658 404.812 155.772 404.505 156.001C404.198 156.222 404.001 156.561 403.916 157.018H407.078C407.052 156.603 406.898 156.272 406.617 156.027C406.335 155.781 405.985 155.658 405.567 155.658Z" fill="#BEC2D3"/>
<path d="M397.93 160.947C397.273 160.947 396.692 160.837 396.189 160.616C395.685 160.388 395.289 160.065 394.998 159.65C394.708 159.226 394.559 158.714 394.55 158.112H396.278C396.295 158.527 396.445 158.879 396.726 159.167C397.017 159.447 397.413 159.587 397.917 159.587C398.352 159.587 398.698 159.485 398.954 159.281C399.21 159.07 399.338 158.79 399.338 158.442C399.338 158.078 399.222 157.794 398.992 157.59C398.77 157.387 398.471 157.222 398.096 157.095C397.721 156.967 397.319 156.832 396.893 156.688C396.202 156.45 395.673 156.145 395.306 155.772C394.947 155.399 394.768 154.903 394.768 154.285C394.759 153.759 394.883 153.31 395.139 152.937C395.404 152.556 395.762 152.263 396.214 152.06C396.667 151.848 397.187 151.742 397.776 151.742C398.373 151.742 398.898 151.848 399.35 152.06C399.811 152.272 400.17 152.568 400.426 152.95C400.69 153.331 400.831 153.785 400.848 154.31H399.094C399.086 153.996 398.962 153.721 398.723 153.484C398.493 153.238 398.169 153.115 397.75 153.115C397.392 153.106 397.089 153.195 396.842 153.382C396.603 153.56 396.483 153.823 396.483 154.17C396.483 154.467 396.577 154.704 396.765 154.882C396.953 155.052 397.209 155.196 397.533 155.315C397.857 155.433 398.228 155.56 398.646 155.696C399.09 155.849 399.495 156.027 399.862 156.23C400.229 156.433 400.524 156.705 400.746 157.044C400.967 157.374 401.078 157.802 401.078 158.328C401.078 158.794 400.959 159.226 400.72 159.625C400.481 160.023 400.127 160.345 399.658 160.591C399.188 160.828 398.612 160.947 397.93 160.947Z" fill="#BEC2D3"/>
<rect x="384.4" y="187.415" width="4.8" height="4.76787" rx="2" fill="#6096FA"/>
<path d="M394 189.799C394 188.482 395.067 187.415 396.384 187.415H437.216C438.533 187.415 439.6 188.482 439.6 189.799C439.6 191.116 438.533 192.183 437.216 192.183H396.384C395.067 192.183 394 191.116 394 189.799Z" fill="#3C4561"/>
<rect x="384.4" y="200.129" width="4.8" height="4.76787" rx="2" fill="#57D3D4"/>
<path d="M394 202.513C394 201.197 395.067 200.129 396.384 200.129H437.216C438.533 200.129 439.6 201.197 439.6 202.513C439.6 203.83 438.533 204.897 437.216 204.897H396.384C395.067 204.897 394 203.83 394 202.513Z" fill="#3C4561"/>
<rect x="384.4" y="212.844" width="4.8" height="4.76787" rx="2" fill="#999DE7"/>
<path d="M394 215.228C394 213.911 395.067 212.844 396.384 212.844H437.216C438.533 212.844 439.6 213.911 439.6 215.228C439.6 216.544 438.533 217.612 437.216 217.612H396.384C395.067 217.612 394 216.544 394 215.228Z" fill="#3C4561"/>
<rect x="384.4" y="225.558" width="4.8" height="4.76788" rx="2" fill="#FFCE78"/>
<path d="M394 227.942C394 226.625 395.067 225.558 396.384 225.558H437.216C438.533 225.558 439.6 226.625 439.6 227.942C439.6 229.259 438.533 230.326 437.216 230.326H396.384C395.067 230.326 394 229.259 394 227.942Z" fill="#3C4561"/>
<rect x="384.4" y="238.272" width="4.8" height="4.76788" rx="2" fill="#F791B3"/>
<path d="M394 240.656C394 239.34 395.067 238.272 396.384 238.272H437.216C438.533 238.272 439.6 239.34 439.6 240.656C439.6 241.973 438.533 243.04 437.216 243.04H396.384C395.067 243.04 394 241.973 394 240.656Z" fill="#3C4561"/>
<path d="M522 215.228C522 233.88 506.778 249 488 249C469.222 249 454 233.88 454 215.228C454 196.576 469.222 181.455 488 181.455C506.778 181.455 522 196.576 522 215.228ZM475.886 215.228C475.886 221.873 481.309 227.261 488 227.261C494.691 227.261 500.114 221.873 500.114 215.228C500.114 208.582 494.691 203.194 488 203.194C481.309 203.194 475.886 208.582 475.886 215.228Z" fill="#D9D9D9"/>
<path d="M488 181.455C494.22 181.455 500.32 183.15 505.637 186.355C510.955 189.559 515.285 194.152 518.157 199.631C521.03 205.111 522.334 211.268 521.927 217.433C521.521 223.598 519.42 229.534 515.854 234.595L497.924 222.128C499.195 220.325 499.944 218.21 500.088 216.014C500.233 213.817 499.769 211.623 498.745 209.671C497.722 207.718 496.179 206.082 494.284 204.94C492.39 203.798 490.216 203.194 488 203.194V181.455Z" fill="#6096FA" stroke="white" stroke-width="2"/>
<path d="M516.554 233.561C513.862 237.698 510.291 241.201 506.091 243.822C501.892 246.444 497.166 248.121 492.245 248.736C487.324 249.351 482.327 248.889 477.604 247.383C472.882 245.876 468.549 243.362 464.908 240.016L479.772 224.06C481.069 225.252 482.613 226.148 484.296 226.685C485.979 227.221 487.759 227.386 489.512 227.167C491.266 226.948 492.95 226.35 494.446 225.416C495.942 224.482 497.215 223.234 498.174 221.76L516.554 233.561Z" fill="#57D3D4" stroke="white" stroke-width="2"/>
<path d="M465.828 240.831C459.732 235.623 455.692 228.438 454.425 220.551L476.037 217.124C476.489 219.934 477.928 222.494 480.1 224.35L465.828 240.831Z" fill="#999DE7" stroke="white" stroke-width="2"/>
<path d="M454.738 222.225C453.109 214.588 454.195 206.626 457.81 199.695C461.424 192.763 467.345 187.289 474.564 184.204L483.213 204.174C480.64 205.273 478.531 207.223 477.243 209.693C475.955 212.163 475.568 215 476.149 217.721L454.738 222.225Z" fill="#FFCE78" stroke="white" stroke-width="2"/>
<path d="M471.9 185.482C476.934 182.793 482.569 181.409 488.284 181.456L488.101 203.195C486.065 203.178 484.057 203.671 482.264 204.629L471.9 185.482Z" fill="#F791B3" stroke="white" stroke-width="2"/>
</g>
<g filter="url(#filter1_dddd_403_9394)">
<path d="M32 22C32 15.3726 37.3726 10 44 10H236.9C243.527 10 248.9 15.3726 248.9 22V213.809C248.9 220.436 243.527 225.809 236.9 225.809H44C37.3726 225.809 32 220.436 32 213.809V22Z" fill="#171C2F"/>
<path d="M44 10.5H236.9C243.251 10.5002 248.4 15.6489 248.4 22V213.809C248.4 220.16 243.251 225.308 236.9 225.309H44C37.6487 225.309 32.5 220.16 32.5 213.809V22L32.5146 21.4082C32.8226 15.3319 37.8472 10.5 44 10.5Z" stroke="#2B324A"/>
<rect x="52.2356" y="27.7725" width="73.9863" height="9.52099" rx="4.76049" fill="#2B324A"/>
<rect x="52.2356" y="43.9173" width="127.105" height="7.61679" rx="3.80839" fill="#2B324A"/>
<path d="M52.2356 72.2038L228.664 72.2038" stroke="#2B324A" stroke-width="0.76207"/>
<rect x="73.0208" y="203.819" width="3.79417" height="3.86968" rx="1.89708" fill="#5A78E5"/>
<rect x="83.2213" y="202.324" width="26.5592" height="6.34732" rx="3.17366" fill="#2B324A"/>
<rect x="122.596" y="203.819" width="3.79417" height="3.86968" rx="1.89708" fill="#B59DF9"/>
<rect x="132.546" y="202.324" width="26.5592" height="6.34732" rx="3.17366" fill="#2B324A"/>
<rect x="172.171" y="203.819" width="3.79417" height="3.86968" rx="1.89708" fill="#FDAED0"/>
<rect x="182.502" y="202.324" width="26.5592" height="6.34732" rx="3.17366" fill="#2B324A"/>
<rect x="52.2356" y="93.15" width="13.2796" height="5.07786" rx="2.53893" fill="#2B324A"/>
<rect x="52.2356" y="105.845" width="13.2796" height="5.07786" rx="2.53893" fill="#2B324A"/>
<rect x="52.2356" y="118.539" width="13.2796" height="5.07786" rx="2.53893" fill="#2B324A"/>
<rect x="52.2356" y="131.234" width="13.2796" height="5.07786" rx="2.53893" fill="#2B324A"/>
<rect x="52.2356" y="143.929" width="13.2796" height="5.07785" rx="2.53893" fill="#2B324A"/>
<rect x="52.2356" y="156.623" width="13.2796" height="5.07786" rx="2.53893" fill="#2B324A"/>
<rect x="52.2356" y="169.318" width="13.2796" height="5.07786" rx="2.53893" fill="#2B324A"/>
<rect x="76.2654" y="180.743" width="13.2796" height="6.34732" rx="3.17366" fill="#2B324A"/>
<rect x="102.192" y="180.743" width="13.2796" height="6.34732" rx="3.17366" fill="#2B324A"/>
<rect x="128.119" y="180.743" width="13.2796" height="6.34732" rx="3.17366" fill="#2B324A"/>
<rect x="154.046" y="180.743" width="13.2796" height="6.34732" rx="3.17366" fill="#2B324A"/>
<rect x="179.973" y="180.743" width="13.2796" height="6.34732" rx="3.17366" fill="#2B324A"/>
<rect x="205.9" y="180.743" width="13.2796" height="6.34732" rx="3.17366" fill="#2B324A"/>
<rect x="73.4844" y="93.531" width="154.167" height="79.8489" stroke="#2B324A" stroke-width="0.76207"/>
<path d="M73.0206 119.865H227.712" stroke="#2B324A" stroke-width="0.76207"/>
<path d="M73.0206 106.805H227.712" stroke="#2B324A" stroke-width="0.76207"/>
<path d="M73.0206 132.926H227.712" stroke="#2B324A" stroke-width="0.76207"/>
<path d="M73.0206 145.986H227.712" stroke="#2B324A" stroke-width="0.76207"/>
<path d="M73.0206 159.046H227.712" stroke="#2B324A" stroke-width="0.76207"/>
<path d="M99.0435 93.2612L99.0435 174.041" stroke="#2B324A" stroke-width="0.76207"/>
<path d="M124.584 93.2612L124.584 174.041" stroke="#2B324A" stroke-width="0.76207"/>
<path d="M150.125 93.2612L150.125 174.041" stroke="#2B324A" stroke-width="0.76207"/>
<path d="M175.666 93.2612L175.666 174.041" stroke="#2B324A" stroke-width="0.76207"/>
<path d="M201.207 93.2612L201.207 174.041" stroke="#2B324A" stroke-width="0.76207"/>
<path d="M73.2616 106.805V132.926H175.907L149.884 93.7449L124.584 106.805L99.0435 119.623L73.2616 106.805Z" fill="#5A78E5"/>
<path d="M200.966 146.228L175.907 132.926H227.23V173.557L200.966 146.228Z" fill="#5A78E5"/>
<ellipse cx="73.4196" cy="146.15" rx="1.5809" ry="1.58683" fill="#B59DF9"/>
<ellipse cx="99.3465" cy="120.126" rx="1.5809" ry="1.58683" fill="#B59DF9"/>
<ellipse cx="124.641" cy="146.15" rx="1.58091" ry="1.58683" fill="#B59DF9"/>
<ellipse cx="150.568" cy="158.845" rx="1.5809" ry="1.58683" fill="#B59DF9"/>
<ellipse cx="175.862" cy="120.126" rx="1.58091" ry="1.58683" fill="#B59DF9"/>
<ellipse cx="201.157" cy="106.797" rx="1.58089" ry="1.58683" fill="#B59DF9"/>
<ellipse cx="227.083" cy="120.126" rx="1.5809" ry="1.58683" fill="#B59DF9"/>
<path d="M73.2616 146.469L99.2844 120.107L124.825 146.469L150.366 158.804L176.148 120.107L201.689 106.805L226.989 120.107" stroke="#B59DF9" stroke-width="1.52414"/>
<path d="M73.2616 132.925L99.0435 145.986L125.307 132.925L149.884 118.414L174.943 106.805L201.207 119.865L227.23 132.925" stroke="#FDAED0" stroke-width="1.52414" stroke-dasharray="3.05 3.05"/>
<ellipse cx="73.4196" cy="132.821" rx="1.5809" ry="1.58683" fill="#FDAED0"/>
<ellipse cx="99.3465" cy="146.15" rx="1.5809" ry="1.58683" fill="#FDAED0"/>
<ellipse cx="124.641" cy="132.821" rx="1.58091" ry="1.58683" fill="#FDAED0"/>
<ellipse cx="150.568" cy="118.222" rx="1.5809" ry="1.58683" fill="#FDAED0"/>
<ellipse cx="175.862" cy="106.797" rx="1.58091" ry="1.58683" fill="#FDAED0"/>
<ellipse cx="201.157" cy="120.126" rx="1.58089" ry="1.58683" fill="#FDAED0"/>
<ellipse cx="227.083" cy="132.821" rx="1.5809" ry="1.58683" fill="#FDAED0"/>
</g>
<defs>
<filter id="filter0_dddd_403_9394" x="320.4" y="121.393" width="265.6" height="200.679" filterUnits="userSpaceOnUse" color-interpolation-filters="sRGB">
<feFlood flood-opacity="0" result="BackgroundImageFix"/>
<feColorMatrix in="SourceAlpha" type="matrix" values="0 0 0 0 0 0 0 0 0 0 0 0 0 0 0 0 0 0 127 0" result="hardAlpha"/>
<feOffset dy="22"/>
<feGaussianBlur stdDeviation="16"/>
<feColorMatrix type="matrix" values="0 0 0 0 0.170868 0 0 0 0 0.225854 0 0 0 0 0.445799 0 0 0 0.05 0"/>
<feBlend mode="normal" in2="BackgroundImageFix" result="effect1_dropShadow_403_9394"/>
<feColorMatrix in="SourceAlpha" type="matrix" values="0 0 0 0 0 0 0 0 0 0 0 0 0 0 0 0 0 0 127 0" result="hardAlpha"/>
<feOffset dy="18"/>
<feGaussianBlur stdDeviation="10"/>
<feColorMatrix type="matrix" values="0 0 0 0 0.170868 0 0 0 0 0.225854 0 0 0 0 0.445799 0 0 0 0.05 0"/>
<feBlend mode="normal" in2="effect1_dropShadow_403_9394" result="effect2_dropShadow_403_9394"/>
<feColorMatrix in="SourceAlpha" type="matrix" values="0 0 0 0 0 0 0 0 0 0 0 0 0 0 0 0 0 0 127 0" result="hardAlpha"/>
<feOffset dy="6"/>
<feGaussianBlur stdDeviation="4"/>
<feColorMatrix type="matrix" values="0 0 0 0 0.170868 0 0 0 0 0.225854 0 0 0 0 0.445799 0 0 0 0.05 0"/>
<feBlend mode="normal" in2="effect2_dropShadow_403_9394" result="effect3_dropShadow_403_9394"/>
<feColorMatrix in="SourceAlpha" type="matrix" values="0 0 0 0 0 0 0 0 0 0 0 0 0 0 0 0 0 0 127 0" result="hardAlpha"/>
<feOffset/>
<feGaussianBlur stdDeviation="0.5"/>
<feColorMatrix type="matrix" values="0 0 0 0 0.170868 0 0 0 0 0.225854 0 0 0 0 0.445799 0 0 0 0.05 0"/>
<feBlend mode="normal" in2="effect3_dropShadow_403_9394" result="effect4_dropShadow_403_9394"/>
<feBlend mode="normal" in="SourceGraphic" in2="effect4_dropShadow_403_9394" result="shape"/>
</filter>
<filter id="filter1_dddd_403_9394" x="0" y="0" width="280.9" height="279.809" filterUnits="userSpaceOnUse" color-interpolation-filters="sRGB">
<feFlood flood-opacity="0" result="BackgroundImageFix"/>
<feColorMatrix in="SourceAlpha" type="matrix" values="0 0 0 0 0 0 0 0 0 0 0 0 0 0 0 0 0 0 127 0" result="hardAlpha"/>
<feOffset dy="22"/>
<feGaussianBlur stdDeviation="16"/>
<feColorMatrix type="matrix" values="0 0 0 0 0.170868 0 0 0 0 0.225854 0 0 0 0 0.445799 0 0 0 0.05 0"/>
<feBlend mode="normal" in2="BackgroundImageFix" result="effect1_dropShadow_403_9394"/>
<feColorMatrix in="SourceAlpha" type="matrix" values="0 0 0 0 0 0 0 0 0 0 0 0 0 0 0 0 0 0 127 0" result="hardAlpha"/>
<feOffset dy="18"/>
<feGaussianBlur stdDeviation="10"/>
<feColorMatrix type="matrix" values="0 0 0 0 0.170868 0 0 0 0 0.225854 0 0 0 0 0.445799 0 0 0 0.05 0"/>
<feBlend mode="normal" in2="effect1_dropShadow_403_9394" result="effect2_dropShadow_403_9394"/>
<feColorMatrix in="SourceAlpha" type="matrix" values="0 0 0 0 0 0 0 0 0 0 0 0 0 0 0 0 0 0 127 0" result="hardAlpha"/>
<feOffset dy="6"/>
<feGaussianBlur stdDeviation="4"/>
<feColorMatrix type="matrix" values="0 0 0 0 0.170868 0 0 0 0 0.225854 0 0 0 0 0.445799 0 0 0 0.05 0"/>
<feBlend mode="normal" in2="effect2_dropShadow_403_9394" result="effect3_dropShadow_403_9394"/>
<feColorMatrix in="SourceAlpha" type="matrix" values="0 0 0 0 0 0 0 0 0 0 0 0 0 0 0 0 0 0 127 0" result="hardAlpha"/>
<feOffset/>
<feGaussianBlur stdDeviation="0.5"/>
<feColorMatrix type="matrix" values="0 0 0 0 0.170868 0 0 0 0 0.225854 0 0 0 0 0.445799 0 0 0 0.05 0"/>
<feBlend mode="normal" in2="effect3_dropShadow_403_9394" result="effect4_dropShadow_403_9394"/>
<feBlend mode="normal" in="SourceGraphic" in2="effect4_dropShadow_403_9394" result="shape"/>
</filter>
<radialGradient id="paint0_radial_403_9394" cx="0" cy="0" r="1" gradientUnits="userSpaceOnUse" gradientTransform="translate(287.029 884.319) rotate(180) scale(899.476 853.635)">
<stop stop-color="#EDECF3"/>
<stop offset="1" stop-color="#E6E5F5" stop-opacity="0.01"/>
</radialGradient>
<clipPath id="clip0_403_9394">
<path d="M78.8 54.7745C78.8 45.938 85.9635 38.7745 94.8 38.7745H487.6C496.437 38.7745 503.6 45.938 503.6 54.7745V320.72C503.6 329.557 496.437 336.72 487.6 336.72H94.8C85.9635 336.72 78.8 329.557 78.8 320.72V54.7745Z" fill="white"/>
</clipPath>
<clipPath id="clip1_403_9394">
<rect width="424.8" height="298.536" fill="white" transform="translate(78.8 38.7745)"/>
</clipPath>
</defs>
</svg>
