<svg width="556" height="395" viewBox="0 0 556 395" fill="none" xmlns="http://www.w3.org/2000/svg">
<g clip-path="url(#clip0_403_9270)">
<g clip-path="url(#clip1_403_9270)">
<rect width="432.752" height="304.396" transform="translate(123.248 -0.24025)" fill="#2D66C4"/>
<g style="mix-blend-mode:screen" opacity="0.2">
<circle cx="338.955" cy="152.053" r="95.2723" fill="white" fill-opacity="0.4"/>
</g>
<circle opacity="0.2" cx="337.123" cy="150.221" r="51.3005" fill="white" fill-opacity="0.6"/>
<path fill-rule="evenodd" clip-rule="evenodd" d="M-195.642 299.172L-195.642 402.86H-194.469L-194.469 299.172H-128.596V402.86H-127.424V299.172H-61.5508V402.86H-60.3782V299.172H5.49469V402.86H6.66727V299.172H71.5247V402.86H72.6973V299.172H138.57V402.86H139.743V299.172H205.616V402.86H206.788V299.172H272.661V402.86H273.834V299.172H338.691V402.86H339.864V299.172H405.737V402.86H406.909V299.172H472.782V402.86H473.955V299.172H538.812V402.86H539.984V299.172H605.857V402.86H607.03V299.172H672.903V402.86H674.076V299.172H739.948V402.86H741.121V299.172H805.978V402.86H807.151V299.172H873.024V402.86H874.197V299.172H966.481V297.999H874.197V231.853H966.481V230.681H874.197V164.535H966.481V163.363H874.197V97.2171H966.481V96.0445H874.197V29.899H966.481V28.7264H874.197V-37.4191H966.481V-38.5917H874.197V-104.737H966.481V-105.91H874.197V-172.056H966.481V-173.228H874.197V-268.611H873.024V-173.228H807.151V-268.611H805.978V-173.228H741.121V-268.611H739.948V-173.228H674.076V-268.611H672.903V-173.228H607.03V-268.611H605.857V-173.228H539.984V-268.611H538.812V-173.228H473.955V-268.611H472.782V-173.228H406.909V-268.611H405.737V-173.228H339.864V-268.611H338.691V-173.228H273.834V-268.611H272.661V-173.228H206.788V-268.611H205.616V-173.228H139.743V-268.611H138.57V-173.228H72.6974V-268.611H71.5248V-173.228H6.6673V-268.611H5.49472V-173.228H-60.3782V-268.611H-61.5508V-173.228H-127.424V-268.611H-128.596V-173.228H-194.469L-194.469 -268.611H-195.642L-195.642 -173.228H-288.083V-172.056H-195.642V-105.91H-288.083V-104.737H-195.642V-38.5917H-288.083V-37.4191H-195.642L-195.642 28.7264H-288.083V29.899H-195.642V96.0445H-288.083V97.2171H-195.642L-195.642 163.363H-288.083V164.535H-195.642V230.681H-288.083V231.853H-195.642V297.999H-288.083V299.172H-195.642ZM873.024 -172.056H807.151V-105.91H873.024V-172.056ZM873.024 -104.737H807.151V-38.5917H873.024V-104.737ZM873.024 -37.4191H807.151V28.7264H873.024V-37.4191ZM873.024 29.899H807.151V96.0445H873.024V29.899ZM873.024 97.2171H807.151V163.363H873.024V97.2171ZM873.024 164.535H807.151V230.681H873.024V164.535ZM873.024 231.853H807.151V297.999H873.024V231.853ZM805.978 231.853V297.999H741.121V231.853H805.978ZM805.978 164.535V230.681H741.121V164.535H805.978ZM805.978 97.2171V163.363H741.121V97.2171H805.978ZM805.978 29.899V96.0445H741.121V29.899H805.978ZM805.978 -37.4191V28.7264H741.121V-37.4191H805.978ZM805.978 -104.737V-38.5917H741.121V-104.737H805.978ZM805.978 -172.056V-105.91H741.121V-172.056H805.978ZM739.948 -172.056H674.076V-105.91H739.948V-172.056ZM739.948 -104.737H674.076V-38.5917H739.948V-104.737ZM739.948 -37.4191H674.076V28.7264H739.948V-37.4191ZM739.948 29.899H674.076L674.076 96.0445H739.948V29.899ZM739.948 97.2171H674.076V163.363H739.948V97.2171ZM739.948 164.535H674.076V230.681H739.948V164.535ZM739.948 231.853H674.076V297.999H739.948V231.853ZM672.903 231.853V297.999H607.03V231.853H672.903ZM672.903 164.535V230.681H607.03V164.535H672.903ZM672.903 97.2171V163.363H607.03V97.2171H672.903ZM672.903 29.899L672.903 96.0445H607.03L607.03 29.899H672.903ZM672.903 -37.4191V28.7264H607.03V-37.4191H672.903ZM672.903 -104.737V-38.5917H607.03V-104.737H672.903ZM672.903 -172.056V-105.91H607.03V-172.056H672.903ZM605.857 -172.056H539.984V-105.91H605.857V-172.056ZM605.857 -104.737H539.984V-38.5917H605.857V-104.737ZM605.857 -37.4191H539.984V28.7264H605.857V-37.4191ZM605.857 29.899H539.984L539.984 96.0445H605.857L605.857 29.899ZM605.857 97.2171H539.984V163.363H605.857V97.2171ZM605.857 164.535H539.984V230.681H605.857V164.535ZM605.857 231.853H539.984V297.999H605.857V231.853ZM538.812 231.853V297.999H473.955V231.853H538.812ZM538.812 164.535V230.681H473.955V164.535H538.812ZM538.812 97.2171V163.363H473.955V97.2171H538.812ZM538.812 29.899L538.812 96.0445H473.955L473.955 29.899H538.812ZM538.812 -37.4191V28.7264H473.955V-37.4191H538.812ZM538.812 -104.737V-38.5917H473.955V-104.737H538.812ZM538.812 -172.056V-105.91H473.955V-172.056H538.812ZM472.782 -172.056H406.909V-105.91H472.782V-172.056ZM472.782 -104.737H406.909V-38.5917H472.782V-104.737ZM472.782 -37.4191H406.909V28.7264H472.782V-37.4191ZM472.782 29.899H406.909L406.909 96.0445H472.782L472.782 29.899ZM472.782 97.2171H406.909V163.363H472.782V97.2171ZM472.782 164.535H406.909V230.681H472.782V164.535ZM472.782 231.853H406.909V297.999H472.782V231.853ZM405.737 231.853V297.999H339.864V231.853H405.737ZM405.737 164.535V230.681H339.864V164.535H405.737ZM405.737 97.2171V163.363H339.864V97.2171H405.737ZM405.737 29.899L405.737 96.0445H339.864L339.864 29.899H405.737ZM405.737 -37.4191V28.7264H339.864V-37.4191H405.737ZM405.737 -104.737V-38.5917H339.864V-104.737H405.737ZM405.737 -172.056V-105.91H339.864V-172.056H405.737ZM338.691 -172.056H273.834V-105.91H338.691V-172.056ZM338.691 -104.737H273.834V-38.5917H338.691V-104.737ZM338.691 -37.4191H273.834V28.7264H338.691V-37.4191ZM338.691 29.899H273.834L273.834 96.0445H338.691L338.691 29.899ZM338.691 97.2171H273.834V163.363H338.691V97.2171ZM338.691 164.535H273.834V230.681H338.691V164.535ZM338.691 231.853H273.834V297.999H338.691V231.853ZM272.661 231.853V297.999H206.788V231.853H272.661ZM272.661 164.535V230.681H206.788V164.535H272.661ZM272.661 97.2171V163.363H206.788V97.2171H272.661ZM272.661 29.899L272.661 96.0445H206.788L206.788 29.899H272.661ZM272.661 -37.4191V28.7264H206.788V-37.4191H272.661ZM272.661 -104.737V-38.5917H206.788V-104.737H272.661ZM272.661 -172.056V-105.91H206.788V-172.056H272.661ZM205.616 -172.056H139.743V-105.91H205.616V-172.056ZM205.616 -104.737H139.743V-38.5917H205.616V-104.737ZM205.616 -37.4191H139.743V28.7264H205.616V-37.4191ZM205.616 29.899H139.743L139.743 96.0445H205.616L205.616 29.899ZM205.616 97.2171H139.743V163.363H205.616V97.2171ZM205.616 164.535H139.743V230.681H205.616V164.535ZM205.616 231.853H139.743V297.999H205.616V231.853ZM138.57 231.853V297.999H72.6973V231.853H138.57ZM138.57 164.535V230.681H72.6973V164.535H138.57ZM138.57 97.2171V163.363H72.6973V97.2171H138.57ZM138.57 29.899L138.57 96.0445H72.6973L72.6974 29.899H138.57ZM138.57 -37.4191V28.7264H72.6974V-37.4191H138.57ZM138.57 -104.737V-38.5917H72.6974V-104.737H138.57ZM138.57 -172.056V-105.91H72.6974V-172.056H138.57ZM71.5248 -172.056H6.6673V-105.91H71.5248V-172.056ZM71.5248 -104.737H6.6673V-38.5917H71.5248V-104.737ZM71.5248 -37.4191H6.6673V28.7264H71.5248V-37.4191ZM71.5248 29.899H6.6673L6.66727 96.0445H71.5247L71.5248 29.899ZM71.5247 97.2171H6.66727V163.363H71.5247V97.2171ZM71.5247 164.535H6.66727V230.681H71.5247V164.535ZM71.5247 231.853H6.66727V297.999H71.5247V231.853ZM5.49469 231.853V297.999H-60.3782L-60.3782 231.853H5.49469ZM5.49469 164.535V230.681H-60.3782V164.535H5.49469ZM5.49469 97.2171V163.363H-60.3782V97.2171H5.49469ZM5.49472 29.899L5.49469 96.0445H-60.3782V29.899H5.49472ZM5.49472 -37.4191V28.7264H-60.3782V-37.4191H5.49472ZM5.49472 -104.737V-38.5917H-60.3782L-60.3782 -104.737H5.49472ZM5.49472 -172.056V-105.91H-60.3782V-172.056H5.49472ZM-61.5508 -172.056H-127.424V-105.91H-61.5508V-172.056ZM-61.5508 -104.737H-127.424L-127.424 -38.5917H-61.5508L-61.5508 -104.737ZM-61.5508 -37.4191H-127.424V28.7264H-61.5508V-37.4191ZM-61.5508 29.899H-127.424V96.0445H-61.5508V29.899ZM-61.5508 97.2171H-127.424V163.363H-61.5508V97.2171ZM-61.5508 164.535H-127.424V230.681H-61.5508V164.535ZM-61.5508 231.853H-127.424L-127.424 297.999H-61.5508L-61.5508 231.853ZM-128.596 231.853L-128.596 297.999H-194.469V231.853H-128.596ZM-128.596 164.535V230.681H-194.469L-194.469 164.535H-128.596ZM-128.596 97.2171V163.363H-194.469V97.2171H-128.596ZM-128.596 29.899V96.0445H-194.469L-194.469 29.899H-128.596ZM-128.596 -37.4191V28.7264H-194.469V-37.4191H-128.596ZM-128.596 -104.737L-128.596 -38.5917H-194.469L-194.469 -104.737H-128.596ZM-128.596 -172.056V-105.91H-194.469V-172.056H-128.596Z" fill="url(#paint0_radial_403_9270)"/>
<path fill-rule="evenodd" clip-rule="evenodd" d="M364.166 93.1306C364.166 90.7021 366.134 88.7334 368.563 88.7334C387.181 88.7334 402.275 103.827 402.275 122.445C402.275 124.874 400.306 126.842 397.877 126.842C395.449 126.842 393.48 124.874 393.48 122.445C393.48 108.684 382.324 97.5278 368.563 97.5278C366.134 97.5278 364.166 95.5591 364.166 93.1306ZM336.317 94.5963C306.365 94.5963 282.085 118.877 282.085 148.828C282.085 182.018 308.99 208.923 342.18 208.923C356.563 208.923 370.357 203.209 380.527 193.039C390.698 182.869 396.412 169.074 396.412 154.691V151.76C396.412 149.331 394.443 147.363 392.014 147.363C389.586 147.363 387.617 149.331 387.617 151.76V154.691C387.617 166.742 382.83 178.299 374.309 186.82C365.788 195.342 354.23 200.129 342.18 200.129C313.847 200.129 290.879 177.161 290.879 148.828C290.879 123.734 311.222 103.391 336.317 103.391H339.248C341.677 103.391 343.645 101.422 343.645 98.9935C343.645 96.565 341.677 94.5963 339.248 94.5963H336.317ZM345.315 124.458C341.716 121.774 336.781 121.774 333.182 124.458C328.836 127.681 323.674 129.623 318.281 130.065C314.458 130.308 311.457 133.451 311.399 137.289V153.225C311.399 160.681 316.006 166.648 320.608 170.813C325.303 175.062 330.773 178.148 334.128 179.84C337.343 181.486 341.153 181.486 344.368 179.84C347.721 178.15 353.191 175.068 357.888 170.82C362.492 166.656 367.097 160.689 367.097 153.225V137.355L367.095 137.235C366.991 133.435 364.023 130.337 360.236 130.066C354.836 129.628 349.667 127.685 345.315 124.458ZM333.182 124.458L333.174 124.463L335.806 127.986L333.186 124.455L333.182 124.458ZM338.437 131.509C338.918 131.15 339.578 131.15 340.059 131.509L340.071 131.518C345.415 135.482 351.706 137.961 358.303 138.713V153.225C358.303 156.951 355.946 160.719 351.989 164.298C348.13 167.788 343.447 170.456 340.397 171.993L340.364 172.01C339.664 172.37 338.833 172.37 338.133 172.01L338.1 171.993C335.052 170.457 330.368 167.785 326.509 164.292C322.549 160.709 320.194 156.942 320.194 153.225V138.713C326.791 137.961 333.081 135.482 338.426 131.518L338.437 131.509ZM318.826 138.842L318.865 138.84C318.852 138.841 318.839 138.842 318.826 138.842ZM368.563 106.322C366.134 106.322 364.166 108.291 364.166 110.719C364.166 113.148 366.134 115.117 368.563 115.117C372.61 115.117 375.891 118.398 375.891 122.445C375.891 124.874 377.86 126.842 380.289 126.842C382.717 126.842 384.686 124.874 384.686 122.445C384.686 113.541 377.467 106.322 368.563 106.322Z" fill="url(#paint1_linear_403_9270)" fill-opacity="0.8"/>
<g style="mix-blend-mode:screen" opacity="0.2">
<circle cx="353.026" cy="56.4874" r="16.123" fill="white" fill-opacity="0.4"/>
</g>
<circle opacity="0.2" cx="352.66" cy="56.121" r="10.2601" fill="white" fill-opacity="0.6"/>
<circle cx="352.66" cy="56.121" r="5.13005" fill="white" fill-opacity="0.6"/>
<g style="mix-blend-mode:screen" opacity="0.2">
<circle cx="726.787" cy="151.76" r="201.098" fill="white" fill-opacity="0.4"/>
</g>
<g style="mix-blend-mode:color-burn">
<rect width="432.752" height="304.396" transform="translate(123.248 -0.24025)" fill="#2E71E5" fill-opacity="0.1"/>
</g>
<g style="mix-blend-mode:screen" opacity="0.2">
<circle cx="254.529" cy="201.301" r="37.8158" fill="white" fill-opacity="0.4"/>
</g>
<circle opacity="0.2" cx="253.802" cy="200.574" r="20.3623" fill="white" fill-opacity="0.6"/>
<circle cx="253.802" cy="200.574" r="10.1812" fill="white" fill-opacity="0.6"/>
</g>
</g>
<g filter="url(#filter1_dddd_403_9270)">
<path d="M32 144.963C32 138.335 37.3726 132.963 44 132.963H244.312C250.94 132.963 256.312 138.335 256.312 144.963V329C256.312 335.627 250.94 341 244.312 341H44C37.3726 341 32 335.627 32 329V144.963Z" fill="#171C2F"/>
<path d="M44 133.463H244.312C250.664 133.463 255.812 138.612 255.812 144.963V329C255.812 335.351 250.664 340.5 244.312 340.5H44C37.6487 340.5 32.5 335.351 32.5 329V144.963L32.5146 144.371C32.8227 138.295 37.8472 133.463 44 133.463Z" stroke="#2B324A"/>
<path d="M214.188 175.338C213.888 175.338 213.606 175.314 213.343 175.266C213.084 175.221 212.869 175.164 212.698 175.093L213.232 173.324C213.51 173.409 213.76 173.455 213.982 173.463C214.208 173.47 214.403 173.418 214.566 173.307C214.732 173.196 214.868 173.007 214.971 172.739L215.11 172.378L212.048 163.587H214.538L216.305 169.863H216.394L218.178 163.587H220.684L217.367 173.057C217.207 173.517 216.99 173.917 216.716 174.258C216.446 174.603 216.103 174.869 215.688 175.054C215.273 175.243 214.773 175.338 214.188 175.338Z" fill="#D3D6E2"/>
<path d="M211.184 163.587V165.367H206.043V163.587H211.184ZM207.21 161.539H209.578V169.507C209.578 169.726 209.611 169.896 209.678 170.019C209.744 170.137 209.837 170.221 209.956 170.269C210.078 170.317 210.219 170.341 210.378 170.341C210.489 170.341 210.6 170.332 210.711 170.314C210.823 170.291 210.908 170.275 210.967 170.264L211.339 172.027C211.221 172.064 211.054 172.107 210.839 172.155C210.624 172.207 210.363 172.239 210.056 172.25C209.485 172.272 208.985 172.196 208.555 172.022C208.129 171.847 207.798 171.577 207.56 171.209C207.323 170.842 207.207 170.378 207.21 169.818V161.539Z" fill="#D3D6E2"/>
<path d="M202.38 172.133V163.587H204.747V172.133H202.38ZM203.569 162.485C203.217 162.485 202.915 162.368 202.663 162.135C202.415 161.897 202.291 161.613 202.291 161.283C202.291 160.957 202.415 160.677 202.663 160.443C202.915 160.206 203.217 160.087 203.569 160.087C203.921 160.087 204.221 160.206 204.469 160.443C204.721 160.677 204.847 160.957 204.847 161.283C204.847 161.613 204.721 161.897 204.469 162.135C204.221 162.368 203.921 162.485 203.569 162.485Z" fill="#D3D6E2"/>
<path d="M201.168 163.587L198.184 172.133H195.516L192.532 163.587H195.033L196.805 169.702H196.894L198.662 163.587H201.168Z" fill="#D3D6E2"/>
<path d="M188.946 172.133V163.587H191.313V172.133H188.946ZM190.135 162.485C189.783 162.485 189.481 162.368 189.229 162.135C188.981 161.897 188.857 161.613 188.857 161.283C188.857 160.957 188.981 160.677 189.229 160.443C189.481 160.206 189.783 160.087 190.135 160.087C190.487 160.087 190.787 160.206 191.035 160.443C191.287 160.677 191.413 160.957 191.413 161.283C191.413 161.613 191.287 161.897 191.035 162.135C190.787 162.368 190.487 162.485 190.135 162.485Z" fill="#D3D6E2"/>
<path d="M187.404 163.587V165.367H182.263V163.587H187.404ZM183.43 161.539H185.798V169.507C185.798 169.726 185.831 169.896 185.898 170.019C185.964 170.137 186.057 170.221 186.175 170.269C186.298 170.317 186.439 170.341 186.598 170.341C186.709 170.341 186.82 170.332 186.931 170.314C187.042 170.291 187.128 170.275 187.187 170.264L187.559 172.027C187.441 172.064 187.274 172.107 187.059 172.155C186.844 172.207 186.583 172.239 186.276 172.25C185.705 172.272 185.205 172.196 184.775 172.022C184.349 171.847 184.017 171.577 183.78 171.209C183.543 170.842 183.426 170.378 183.43 169.818V161.539Z" fill="#D3D6E2"/>
<path d="M177.535 172.3C176.661 172.3 175.909 172.114 175.279 171.744C174.653 171.369 174.171 170.85 173.834 170.186C173.5 169.522 173.334 168.758 173.334 167.893C173.334 167.018 173.502 166.25 173.839 165.59C174.18 164.926 174.664 164.408 175.29 164.037C175.916 163.663 176.661 163.476 177.524 163.476C178.269 163.476 178.921 163.611 179.48 163.882C180.04 164.152 180.482 164.533 180.808 165.022C181.135 165.512 181.314 166.087 181.348 166.747H179.113C179.05 166.321 178.884 165.977 178.613 165.718C178.347 165.454 177.996 165.323 177.563 165.323C177.196 165.323 176.876 165.423 176.602 165.623C176.331 165.82 176.12 166.107 175.968 166.486C175.816 166.864 175.74 167.322 175.74 167.86C175.74 168.405 175.814 168.869 175.962 169.251C176.114 169.633 176.327 169.924 176.602 170.124C176.876 170.325 177.196 170.425 177.563 170.425C177.833 170.425 178.076 170.369 178.291 170.258C178.51 170.147 178.689 169.985 178.83 169.774C178.975 169.559 179.069 169.301 179.113 169.001H181.348C181.31 169.653 181.133 170.228 180.814 170.725C180.499 171.219 180.064 171.604 179.508 171.883C178.952 172.161 178.295 172.3 177.535 172.3Z" fill="#D3D6E2"/>
<path d="M167.034 172.294C166.49 172.294 166.004 172.2 165.578 172.011C165.152 171.818 164.815 171.534 164.567 171.159C164.322 170.781 164.2 170.31 164.2 169.746C164.2 169.271 164.287 168.873 164.461 168.55C164.635 168.227 164.873 167.967 165.173 167.771C165.473 167.574 165.814 167.426 166.195 167.326C166.581 167.226 166.984 167.155 167.407 167.114C167.903 167.062 168.303 167.014 168.607 166.97C168.911 166.921 169.131 166.851 169.268 166.758C169.406 166.666 169.474 166.528 169.474 166.347V166.313C169.474 165.961 169.363 165.688 169.141 165.495C168.922 165.302 168.611 165.206 168.207 165.206C167.781 165.206 167.442 165.3 167.19 165.49C166.938 165.675 166.771 165.909 166.69 166.191L164.5 166.013C164.611 165.493 164.83 165.045 165.156 164.666C165.482 164.284 165.902 163.991 166.417 163.787C166.936 163.579 167.536 163.476 168.218 163.476C168.692 163.476 169.146 163.531 169.58 163.642C170.017 163.754 170.404 163.926 170.741 164.16C171.082 164.394 171.351 164.694 171.547 165.061C171.743 165.425 171.842 165.861 171.842 166.369V172.133H169.596V170.948H169.53C169.393 171.215 169.209 171.451 168.979 171.655C168.75 171.855 168.474 172.012 168.151 172.127C167.829 172.239 167.457 172.294 167.034 172.294ZM167.712 170.659C168.061 170.659 168.368 170.59 168.635 170.453C168.902 170.312 169.111 170.123 169.263 169.885C169.415 169.648 169.491 169.379 169.491 169.078V168.171C169.417 168.22 169.315 168.264 169.185 168.305C169.059 168.342 168.916 168.377 168.757 168.411C168.598 168.44 168.439 168.468 168.279 168.494C168.12 168.516 167.975 168.537 167.846 168.555C167.568 168.596 167.325 168.661 167.118 168.75C166.91 168.839 166.749 168.96 166.634 169.112C166.519 169.26 166.462 169.446 166.462 169.668C166.462 169.991 166.579 170.238 166.812 170.408C167.049 170.575 167.349 170.659 167.712 170.659Z" fill="#D3D6E2"/>
<path d="M153.27 175.338C152.97 175.338 152.688 175.314 152.425 175.266C152.166 175.221 151.951 175.164 151.781 175.093L152.314 173.324C152.592 173.409 152.842 173.455 153.064 173.463C153.29 173.47 153.485 173.418 153.648 173.307C153.815 173.196 153.95 173.007 154.054 172.739L154.193 172.378L151.13 163.587H153.62L155.387 169.863H155.476L157.26 163.587H159.767L156.449 173.057C156.29 173.517 156.073 173.917 155.799 174.258C155.528 174.603 155.185 174.869 154.77 175.054C154.356 175.243 153.855 175.338 153.27 175.338Z" fill="#D3D6E2"/>
<path d="M149.912 160.738V172.133H147.545V160.738H149.912Z" fill="#D3D6E2"/>
<path d="M140.581 169.674L140.587 166.831H140.931L143.665 163.587H146.383L142.71 167.882H142.148L140.581 169.674ZM138.436 172.133V160.738H140.803V172.133H138.436ZM143.771 172.133L141.259 168.411L142.837 166.736L146.544 172.133H143.771Z" fill="#D3D6E2"/>
<path d="M132.973 172.3C132.095 172.3 131.339 172.122 130.705 171.766C130.076 171.406 129.59 170.898 129.249 170.241C128.909 169.581 128.738 168.8 128.738 167.899C128.738 167.02 128.909 166.248 129.249 165.584C129.59 164.92 130.07 164.403 130.689 164.032C131.311 163.661 132.041 163.476 132.878 163.476C133.442 163.476 133.966 163.566 134.451 163.748C134.94 163.926 135.366 164.195 135.729 164.555C136.096 164.915 136.381 165.367 136.585 165.913C136.789 166.454 136.891 167.088 136.891 167.815V168.466H129.683V166.998H134.662C134.662 166.656 134.588 166.354 134.44 166.091C134.292 165.827 134.086 165.621 133.823 165.473C133.564 165.321 133.262 165.245 132.917 165.245C132.558 165.245 132.239 165.328 131.961 165.495C131.687 165.658 131.472 165.879 131.317 166.157C131.161 166.432 131.082 166.738 131.078 167.075V168.472C131.078 168.895 131.156 169.26 131.311 169.568C131.471 169.876 131.695 170.113 131.984 170.28C132.273 170.447 132.615 170.531 133.012 170.531C133.275 170.531 133.516 170.494 133.734 170.419C133.953 170.345 134.14 170.234 134.296 170.085C134.451 169.937 134.57 169.755 134.651 169.54L136.841 169.685C136.73 170.212 136.502 170.672 136.157 171.065C135.816 171.454 135.376 171.758 134.835 171.977C134.297 172.192 133.677 172.3 132.973 172.3Z" fill="#D3D6E2"/>
<path d="M123.62 172.3C122.742 172.3 121.986 172.122 121.352 171.766C120.722 171.406 120.237 170.898 119.896 170.241C119.555 169.581 119.385 168.8 119.385 167.899C119.385 167.02 119.555 166.248 119.896 165.584C120.237 164.92 120.717 164.403 121.336 164.032C121.958 163.661 122.688 163.476 123.525 163.476C124.088 163.476 124.613 163.566 125.098 163.748C125.587 163.926 126.013 164.195 126.376 164.555C126.743 164.915 127.028 165.367 127.232 165.913C127.436 166.454 127.538 167.088 127.538 167.815V168.466H120.33V166.998H125.309C125.309 166.656 125.235 166.354 125.087 166.091C124.939 165.827 124.733 165.621 124.47 165.473C124.211 165.321 123.909 165.245 123.564 165.245C123.205 165.245 122.886 165.328 122.608 165.495C122.334 165.658 122.119 165.879 121.964 166.157C121.808 166.432 121.728 166.738 121.725 167.075V168.472C121.725 168.895 121.802 169.26 121.958 169.568C122.117 169.876 122.342 170.113 122.631 170.28C122.92 170.447 123.262 170.531 123.659 170.531C123.922 170.531 124.163 170.494 124.381 170.419C124.6 170.345 124.787 170.234 124.942 170.085C125.098 169.937 125.217 169.755 125.298 169.54L127.488 169.685C127.377 170.212 127.149 170.672 126.804 171.065C126.463 171.454 126.022 171.758 125.481 171.977C124.944 172.192 124.324 172.3 123.62 172.3Z" fill="#D3D6E2"/>
<path d="M108.316 172.133L105.993 163.587H108.388L109.711 169.329H109.789L111.167 163.587H113.518L114.918 169.295H114.99L116.291 163.587H118.681L116.363 172.133H113.857L112.39 166.758H112.284L110.817 172.133H108.316Z" fill="#D3D6E2"/>
<path d="M96.6066 172.133V163.587H98.9018V165.078H98.9907C99.1463 164.548 99.4075 164.147 99.7743 163.876C100.141 163.602 100.563 163.464 101.041 163.464C101.16 163.464 101.288 163.472 101.425 163.487C101.562 163.501 101.682 163.522 101.786 163.548V165.651C101.675 165.618 101.521 165.588 101.325 165.562C101.128 165.536 100.949 165.523 100.786 165.523C100.437 165.523 100.126 165.599 99.8521 165.751C99.5816 165.9 99.3668 166.107 99.2074 166.374C99.0518 166.641 98.974 166.949 98.974 167.298V172.133H96.6066Z" fill="#D3D6E2"/>
<path d="M92.3454 168.494V163.587H94.7129V172.133H92.4399V170.581H92.351C92.1583 171.081 91.8378 171.484 91.3895 171.788C90.9449 172.092 90.4022 172.244 89.7612 172.244C89.1906 172.244 88.6886 172.114 88.2551 171.855C87.8217 171.595 87.4827 171.226 87.2381 170.748C86.9973 170.269 86.875 169.696 86.8713 169.028V163.587H89.2388V168.605C89.2425 169.11 89.3777 169.509 89.6445 169.802C89.9112 170.095 90.2688 170.241 90.7171 170.241C91.0024 170.241 91.2691 170.176 91.5173 170.047C91.7656 169.913 91.9656 169.716 92.1175 169.457C92.2731 169.197 92.3491 168.876 92.3454 168.494Z" fill="#D3D6E2"/>
<path d="M81.1306 172.3C80.2674 172.3 79.5208 172.116 78.891 171.749C78.2648 171.378 77.7813 170.863 77.4405 170.202C77.0996 169.538 76.9292 168.769 76.9292 167.893C76.9292 167.01 77.0996 166.239 77.4405 165.579C77.7813 164.915 78.2648 164.399 78.891 164.032C79.5208 163.661 80.2674 163.476 81.1306 163.476C81.9939 163.476 82.7386 163.661 83.3647 164.032C83.9945 164.399 84.4799 164.915 84.8207 165.579C85.1616 166.239 85.332 167.01 85.332 167.893C85.332 168.769 85.1616 169.538 84.8207 170.202C84.4799 170.863 83.9945 171.378 83.3647 171.749C82.7386 172.116 81.9939 172.3 81.1306 172.3ZM81.1417 170.464C81.5344 170.464 81.8623 170.353 82.1254 170.13C82.3884 169.904 82.5867 169.596 82.72 169.206C82.8571 168.817 82.9257 168.374 82.9257 167.877C82.9257 167.38 82.8571 166.936 82.72 166.547C82.5867 166.157 82.3884 165.849 82.1254 165.623C81.8623 165.397 81.5344 165.284 81.1417 165.284C80.7453 165.284 80.4118 165.397 80.1414 165.623C79.8746 165.849 79.6727 166.157 79.5356 166.547C79.4023 166.936 79.3356 167.38 79.3356 167.877C79.3356 168.374 79.4023 168.817 79.5356 169.206C79.6727 169.596 79.8746 169.904 80.1414 170.13C80.4118 170.353 80.7453 170.464 81.1417 170.464Z" fill="#D3D6E2"/>
<path d="M67.0995 160.738H69.7948L72.3901 165.645H72.5013L75.0966 160.738H77.792L73.6406 168.105V172.133H71.2509V168.105L67.0995 160.738Z" fill="#D3D6E2"/>
<path d="M98.0764 198.246C98.0764 196.804 99.2456 195.635 100.688 195.635H187.624C189.067 195.635 190.236 196.804 190.236 198.246C190.236 199.689 189.067 200.858 187.624 200.858H100.688C99.2456 200.858 98.0764 199.689 98.0764 198.246Z" fill="#3C4561"/>
<path d="M101.237 225.829C100.702 225.829 100.229 225.739 99.8185 225.558C99.4081 225.37 99.0847 225.105 98.8482 224.764C98.6117 224.416 98.49 223.994 98.483 223.5H99.8915C99.9054 223.841 100.027 224.13 100.257 224.367C100.493 224.597 100.817 224.712 101.227 224.712C101.582 224.712 101.863 224.628 102.072 224.461C102.281 224.287 102.385 224.057 102.385 223.771C102.385 223.472 102.291 223.239 102.103 223.072C101.922 222.905 101.679 222.769 101.373 222.664C101.067 222.56 100.74 222.448 100.392 222.33C99.8289 222.135 99.3977 221.884 99.0986 221.578C98.8065 221.272 98.6604 220.864 98.6604 220.356C98.6534 219.924 98.7543 219.555 98.963 219.249C99.1786 218.935 99.4707 218.695 99.8393 218.528C100.208 218.354 100.632 218.267 101.112 218.267C101.599 218.267 102.027 218.354 102.395 218.528C102.771 218.702 103.063 218.946 103.272 219.259C103.487 219.572 103.602 219.945 103.616 220.377H102.187C102.18 220.119 102.079 219.893 101.884 219.698C101.696 219.496 101.432 219.395 101.091 219.395C100.799 219.388 100.552 219.461 100.351 219.614C100.156 219.76 100.058 219.976 100.058 220.262C100.058 220.506 100.135 220.701 100.288 220.847C100.441 220.986 100.65 221.104 100.914 221.202C101.178 221.299 101.481 221.404 101.822 221.515C102.183 221.641 102.514 221.787 102.813 221.954C103.112 222.121 103.352 222.344 103.533 222.623C103.714 222.894 103.804 223.246 103.804 223.677C103.804 224.06 103.707 224.416 103.512 224.743C103.317 225.07 103.028 225.335 102.646 225.537C102.263 225.732 101.794 225.829 101.237 225.829Z" fill="#9198B7"/>
<path d="M93.3134 225.704V218.392H94.6488V224.659H97.8831V225.704H93.3134Z" fill="#9198B7"/>
<path d="M90.5625 225.704V218.392H91.8979V225.704H90.5625Z" fill="#9198B7"/>
<path d="M82.7776 225.704L85.4485 218.392H86.9508L89.6217 225.704H88.2028L87.6186 224.012H84.7703L84.1756 225.704H82.7776ZM85.1355 222.967H87.2534L86.1892 219.928L85.1355 222.967Z" fill="#9198B7"/>
<path d="M74.0365 225.704V218.392H75.6223L77.9489 223.03L80.2442 218.392H81.83V225.704H80.4946V220.659L78.4601 224.659H77.4064L75.3719 220.659V225.704H74.0365Z" fill="#9198B7"/>
<path d="M68.0049 225.704V218.392H72.7728V219.468H69.3403V221.474H72.4598V222.518H69.3403V224.628H72.7728V225.704H68.0049Z" fill="#9198B7"/>
<path d="M86.3488 262.67L93.4642 246.723H84.1656V243.781H97.0219V246.237L89.9334 262.67H86.3488Z" fill="#EDEEF3"/>
<path d="M77.9574 262.399V247.449L74.8579 248.178V245.534L79.4128 243.51H81.5421V262.399H77.9574Z" fill="#EDEEF3"/>
<path d="M79.3532 283.639L74.6116 289.93C74.115 290.589 74.5851 291.532 75.4102 291.532H84.4982C85.3044 291.532 85.7792 290.627 85.3209 289.964L80.9745 283.672C80.5869 283.111 79.7636 283.094 79.3532 283.639Z" fill="#387FF5"/>
<path d="M95.1706 291.032V289.508H91.0426V288.224L94.9546 282.632H96.7906V288.104H97.8826V289.508H96.7906V291.032H95.1706ZM92.7706 288.104H95.2786V284.42L92.7706 288.104Z" fill="#EDEEF3"/>
<path d="M149.896 225.829C149.36 225.829 148.887 225.739 148.477 225.558C148.067 225.37 147.743 225.105 147.507 224.764C147.27 224.416 147.149 223.994 147.142 223.5H148.55C148.564 223.841 148.686 224.13 148.915 224.367C149.152 224.597 149.475 224.712 149.886 224.712C150.24 224.712 150.522 224.628 150.731 224.461C150.939 224.287 151.044 224.057 151.044 223.771C151.044 223.472 150.95 223.239 150.762 223.072C150.581 222.905 150.338 222.769 150.032 222.664C149.726 222.56 149.399 222.448 149.051 222.33C148.487 222.135 148.056 221.884 147.757 221.578C147.465 221.272 147.319 220.864 147.319 220.356C147.312 219.924 147.413 219.555 147.622 219.249C147.837 218.935 148.129 218.695 148.498 218.528C148.867 218.354 149.291 218.267 149.771 218.267C150.258 218.267 150.685 218.354 151.054 218.528C151.43 218.702 151.722 218.946 151.93 219.259C152.146 219.572 152.261 219.945 152.275 220.377H150.845C150.838 220.119 150.738 219.893 150.543 219.698C150.355 219.496 150.091 219.395 149.75 219.395C149.458 219.388 149.211 219.461 149.009 219.614C148.814 219.76 148.717 219.976 148.717 220.262C148.717 220.506 148.794 220.701 148.947 220.847C149.1 220.986 149.308 221.104 149.573 221.202C149.837 221.299 150.139 221.404 150.48 221.515C150.842 221.641 151.172 221.787 151.471 221.954C151.77 222.121 152.01 222.344 152.191 222.623C152.372 222.894 152.462 223.246 152.462 223.677C152.462 224.06 152.365 224.416 152.17 224.743C151.976 225.07 151.687 225.335 151.304 225.537C150.922 225.732 150.452 225.829 149.896 225.829Z" fill="#9198B7"/>
<path d="M141.972 225.704V218.392H143.307V224.659H146.542V225.704H141.972Z" fill="#9198B7"/>
<path d="M136.226 225.704V218.392H137.561V224.659H140.795V225.704H136.226Z" fill="#9198B7"/>
<path d="M128.441 225.704L131.112 218.392H132.614L135.285 225.704H133.866L133.282 224.012H130.433L129.839 225.704H128.441ZM130.799 222.967H132.916L131.852 219.928L130.799 222.967Z" fill="#9198B7"/>
<path d="M124.617 225.829C123.879 225.829 123.247 225.673 122.718 225.359C122.189 225.039 121.782 224.597 121.497 224.033C121.212 223.462 121.069 222.804 121.069 222.058C121.069 221.313 121.212 220.655 121.497 220.084C121.782 219.513 122.189 219.068 122.718 218.747C123.247 218.427 123.879 218.267 124.617 218.267C125.493 218.267 126.21 218.486 126.766 218.925C127.329 219.357 127.681 219.966 127.82 220.753H126.349C126.258 220.356 126.063 220.046 125.764 219.823C125.472 219.593 125.083 219.478 124.596 219.478C123.921 219.478 123.393 219.708 123.01 220.168C122.627 220.627 122.436 221.258 122.436 222.058C122.436 222.859 122.627 223.489 123.01 223.949C123.393 224.402 123.921 224.628 124.596 224.628C125.083 224.628 125.472 224.524 125.764 224.315C126.063 224.099 126.258 223.803 126.349 223.427H127.82C127.681 224.179 127.329 224.767 126.766 225.192C126.21 225.617 125.493 225.829 124.617 225.829Z" fill="#9198B7"/>
<path d="M144.707 263.046C143.324 263.046 142.129 262.803 141.123 262.318C140.134 261.832 139.353 261.166 138.778 260.321C138.221 259.457 137.897 258.486 137.808 257.407H141.177C141.338 258.18 141.734 258.828 142.363 259.349C142.991 259.853 143.773 260.105 144.707 260.105C145.714 260.105 146.531 259.736 147.16 258.999C147.807 258.261 148.13 257.344 148.13 256.246C148.13 255.113 147.807 254.213 147.16 253.548C146.531 252.882 145.732 252.549 144.761 252.549C143.953 252.549 143.252 252.747 142.659 253.143C142.066 253.539 141.644 254.034 141.392 254.627H138.077L139.694 243.834H150.152V246.856H142.282L141.419 251.227C141.815 250.795 142.354 250.445 143.036 250.175C143.719 249.887 144.483 249.743 145.327 249.743C146.675 249.743 147.798 250.049 148.696 250.661C149.595 251.254 150.278 252.046 150.745 253.035C151.212 254.007 151.445 255.068 151.445 256.219C151.445 257.532 151.158 258.702 150.583 259.727C150.026 260.753 149.235 261.562 148.211 262.156C147.205 262.749 146.037 263.046 144.707 263.046Z" fill="#EDEEF3"/>
<path d="M122.087 262.722V260.213C123.237 259.259 124.351 258.315 125.429 257.38C126.525 256.444 127.495 255.518 128.34 254.6C129.202 253.683 129.885 252.792 130.388 251.929C130.909 251.047 131.17 250.193 131.17 249.365C131.17 248.592 130.954 247.908 130.523 247.315C130.109 246.721 129.418 246.424 128.447 246.424C127.459 246.424 126.713 246.748 126.21 247.395C125.707 248.043 125.456 248.826 125.456 249.743H122.114C122.15 248.358 122.455 247.207 123.03 246.289C123.605 245.354 124.369 244.661 125.321 244.211C126.273 243.744 127.342 243.51 128.528 243.51C130.451 243.51 131.942 244.04 133.002 245.102C134.08 246.145 134.619 247.503 134.619 249.176C134.619 250.22 134.377 251.236 133.892 252.226C133.425 253.215 132.805 254.168 132.032 255.086C131.259 256.003 130.424 256.867 129.525 257.676C128.627 258.468 127.756 259.205 126.911 259.889H135.078V262.722H122.087Z" fill="#EDEEF3"/>
<path d="M130.715 284.286L125.973 290.578C125.477 291.237 125.947 292.18 126.772 292.18H135.86C136.666 292.18 137.141 291.275 136.683 290.612L132.336 284.32C131.948 283.759 131.125 283.742 130.715 284.286Z" fill="#387FF5"/>
<path d="M143.454 291.68L146.454 284.66H142.386V283.28H148.122V284.42L145.134 291.68H143.454Z" fill="#EDEEF3"/>
<path d="M217.87 225.829C217.334 225.829 216.861 225.739 216.451 225.558C216.041 225.37 215.717 225.105 215.481 224.764C215.244 224.416 215.122 223.994 215.115 223.5H216.524C216.538 223.841 216.66 224.13 216.889 224.367C217.126 224.597 217.449 224.712 217.859 224.712C218.214 224.712 218.496 224.628 218.704 224.461C218.913 224.287 219.017 224.057 219.017 223.771C219.017 223.472 218.924 223.239 218.736 223.072C218.555 222.905 218.311 222.769 218.005 222.664C217.699 222.56 217.373 222.448 217.025 222.33C216.461 222.135 216.03 221.884 215.731 221.578C215.439 221.272 215.293 220.864 215.293 220.356C215.286 219.924 215.387 219.555 215.595 219.249C215.811 218.935 216.103 218.695 216.472 218.528C216.84 218.354 217.265 218.267 217.745 218.267C218.232 218.267 218.659 218.354 219.028 218.528C219.403 218.702 219.696 218.946 219.904 219.259C220.12 219.572 220.235 219.945 220.249 220.377H218.819C218.812 220.119 218.711 219.893 218.517 219.698C218.329 219.496 218.065 219.395 217.724 219.395C217.432 219.388 217.185 219.461 216.983 219.614C216.788 219.76 216.691 219.976 216.691 220.262C216.691 220.506 216.767 220.701 216.92 220.847C217.073 220.986 217.282 221.104 217.546 221.202C217.811 221.299 218.113 221.404 218.454 221.515C218.816 221.641 219.146 221.787 219.445 221.954C219.744 222.121 219.984 222.344 220.165 222.623C220.346 222.894 220.436 223.246 220.436 223.677C220.436 224.06 220.339 224.416 220.144 224.743C219.949 225.07 219.661 225.335 219.278 225.537C218.896 225.732 218.426 225.829 217.87 225.829Z" fill="#9198B7"/>
<path d="M210.499 225.829C209.811 225.829 209.209 225.673 208.694 225.359C208.18 225.046 207.78 224.611 207.495 224.054C207.209 223.489 207.067 222.835 207.067 222.09C207.067 221.338 207.213 220.676 207.505 220.105C207.804 219.527 208.225 219.078 208.767 218.758C209.317 218.43 209.967 218.267 210.718 218.267C211.574 218.267 212.283 218.472 212.847 218.883C213.41 219.294 213.775 219.861 213.942 220.586H212.45C212.339 220.244 212.137 219.98 211.845 219.792C211.553 219.597 211.178 219.499 210.718 219.499C209.988 219.499 209.425 219.733 209.028 220.199C208.632 220.659 208.434 221.292 208.434 222.1C208.434 222.908 208.628 223.535 209.018 223.98C209.414 224.419 209.95 224.638 210.625 224.638C211.285 224.638 211.783 224.461 212.117 224.106C212.457 223.744 212.663 223.27 212.732 222.685H210.885V221.682H214.078V225.704H212.847L212.743 224.743C212.506 225.091 212.21 225.359 211.856 225.547C211.501 225.735 211.049 225.829 210.499 225.829Z" fill="#9198B7"/>
<path d="M199.788 225.704V218.392H201.123L204.556 223.542V218.392H205.891V225.704H204.556L201.123 220.565V225.704H199.788Z" fill="#9198B7"/>
<path d="M197.037 225.704V218.392H198.372V225.704H197.037Z" fill="#9198B7"/>
<path d="M192.573 225.704V219.468H190.445V218.392H196.048V219.468H193.909V225.704H192.573Z" fill="#9198B7"/>
<path d="M184.841 225.704V218.392H189.609V219.468H186.177V221.474H189.296V222.518H186.177V224.628H189.609V225.704H184.841Z" fill="#9198B7"/>
<path d="M178.809 225.704V218.392H183.577V219.468H180.145V221.474H183.264V222.518H180.145V224.628H183.577V225.704H178.809Z" fill="#9198B7"/>
<path d="M169.599 225.704V218.392H171.185L173.511 223.03L175.807 218.392H177.392V225.704H176.057V220.659L174.023 224.659H172.969L170.934 220.659V225.704H169.599Z" fill="#9198B7"/>
<path d="M203.03 263.318C201.646 263.318 200.451 263.075 199.445 262.589C198.457 262.103 197.675 261.438 197.1 260.592C196.543 259.729 196.22 258.757 196.13 257.678H199.499C199.661 258.452 200.056 259.099 200.685 259.621C201.314 260.125 202.095 260.376 203.03 260.376C204.036 260.376 204.853 260.008 205.482 259.27C206.129 258.533 206.453 257.615 206.453 256.518C206.453 255.384 206.129 254.485 205.482 253.819C204.853 253.154 204.054 252.821 203.084 252.821C202.275 252.821 201.574 253.019 200.981 253.415C200.388 253.81 199.966 254.305 199.715 254.899H196.399L198.017 244.105H208.474V247.127H200.604L199.741 251.499C200.137 251.067 200.676 250.716 201.359 250.446C202.041 250.159 202.805 250.015 203.65 250.015C204.997 250.015 206.12 250.32 207.019 250.932C207.917 251.526 208.6 252.317 209.067 253.307C209.534 254.278 209.768 255.339 209.768 256.491C209.768 257.804 209.48 258.973 208.905 259.999C208.348 261.024 207.558 261.834 206.533 262.427C205.527 263.021 204.359 263.318 203.03 263.318Z" fill="#EDEEF3"/>
<path d="M180.409 262.994V260.484C181.559 259.531 182.673 258.587 183.751 257.651C184.847 256.716 185.817 255.789 186.662 254.872C187.524 253.954 188.207 253.064 188.71 252.2C189.231 251.319 189.492 250.464 189.492 249.637C189.492 248.863 189.276 248.18 188.845 247.586C188.432 246.992 187.74 246.696 186.77 246.696C185.781 246.696 185.036 247.019 184.533 247.667C184.03 248.315 183.778 249.097 183.778 250.015H180.436C180.472 248.629 180.777 247.478 181.352 246.561C181.927 245.625 182.691 244.933 183.643 244.483C184.596 244.015 185.665 243.781 186.851 243.781C188.773 243.781 190.264 244.312 191.325 245.373C192.403 246.417 192.942 247.775 192.942 249.448C192.942 250.491 192.699 251.508 192.214 252.497C191.747 253.487 191.127 254.44 190.354 255.357C189.582 256.275 188.746 257.138 187.848 257.948C186.949 258.739 186.078 259.477 185.233 260.161H193.4V262.994H180.409Z" fill="#EDEEF3"/>
<path d="M188.466 284.286L183.725 290.578C183.228 291.237 183.698 292.18 184.523 292.18H193.611C194.418 292.18 194.892 291.275 194.434 290.612L190.088 284.32C189.7 283.759 188.877 283.742 188.466 284.286Z" fill="#387FF5"/>
<path d="M200.632 291.68V290.492C201.152 290.084 201.656 289.676 202.144 289.268C202.632 288.86 203.068 288.456 203.452 288.056C203.844 287.648 204.152 287.252 204.376 286.868C204.608 286.484 204.724 286.112 204.724 285.752C204.724 285.528 204.68 285.324 204.592 285.14C204.512 284.948 204.384 284.796 204.208 284.684C204.032 284.564 203.8 284.504 203.512 284.504C203.232 284.504 202.992 284.568 202.792 284.696C202.6 284.824 202.452 284.996 202.348 285.212C202.252 285.42 202.204 285.656 202.204 285.92H200.644C200.66 285.304 200.796 284.788 201.052 284.372C201.316 283.956 201.664 283.648 202.096 283.448C202.536 283.24 203.024 283.136 203.56 283.136C204.152 283.136 204.652 283.248 205.06 283.472C205.476 283.688 205.792 283.984 206.008 284.36C206.232 284.736 206.344 285.168 206.344 285.656C206.344 286.024 206.272 286.384 206.128 286.736C205.992 287.088 205.804 287.432 205.564 287.768C205.332 288.096 205.068 288.412 204.772 288.716C204.476 289.02 204.164 289.312 203.836 289.592C203.508 289.864 203.192 290.12 202.888 290.36H206.536V291.68H200.632Z" fill="#EDEEF3"/>
<path d="M101.989 314.016C101.989 312.574 103.158 311.405 104.6 311.405H155.89C157.333 311.405 158.502 312.574 158.502 314.016C158.502 315.458 157.333 316.627 155.89 316.627H104.6C103.158 316.627 101.989 315.458 101.989 314.016Z" fill="#3C4561"/>
<path d="M172.412 314.016C172.412 312.574 173.582 311.405 175.024 311.405H183.712C185.154 311.405 186.323 312.574 186.323 314.016C186.323 315.458 185.154 316.627 183.712 316.627H175.024C173.582 316.627 172.412 315.458 172.412 314.016Z" fill="#3C4561"/>
</g>
<defs>
<filter id="filter1_dddd_403_9270" x="0" y="122.963" width="288.312" height="272.037" filterUnits="userSpaceOnUse" color-interpolation-filters="sRGB">
<feFlood flood-opacity="0" result="BackgroundImageFix"/>
<feColorMatrix in="SourceAlpha" type="matrix" values="0 0 0 0 0 0 0 0 0 0 0 0 0 0 0 0 0 0 127 0" result="hardAlpha"/>
<feOffset dy="22"/>
<feGaussianBlur stdDeviation="16"/>
<feColorMatrix type="matrix" values="0 0 0 0 0.170868 0 0 0 0 0.225854 0 0 0 0 0.445799 0 0 0 0.05 0"/>
<feBlend mode="normal" in2="BackgroundImageFix" result="effect1_dropShadow_403_9270"/>
<feColorMatrix in="SourceAlpha" type="matrix" values="0 0 0 0 0 0 0 0 0 0 0 0 0 0 0 0 0 0 127 0" result="hardAlpha"/>
<feOffset dy="18"/>
<feGaussianBlur stdDeviation="10"/>
<feColorMatrix type="matrix" values="0 0 0 0 0.170868 0 0 0 0 0.225854 0 0 0 0 0.445799 0 0 0 0.05 0"/>
<feBlend mode="normal" in2="effect1_dropShadow_403_9270" result="effect2_dropShadow_403_9270"/>
<feColorMatrix in="SourceAlpha" type="matrix" values="0 0 0 0 0 0 0 0 0 0 0 0 0 0 0 0 0 0 127 0" result="hardAlpha"/>
<feOffset dy="6"/>
<feGaussianBlur stdDeviation="4"/>
<feColorMatrix type="matrix" values="0 0 0 0 0.170868 0 0 0 0 0.225854 0 0 0 0 0.445799 0 0 0 0.05 0"/>
<feBlend mode="normal" in2="effect2_dropShadow_403_9270" result="effect3_dropShadow_403_9270"/>
<feColorMatrix in="SourceAlpha" type="matrix" values="0 0 0 0 0 0 0 0 0 0 0 0 0 0 0 0 0 0 127 0" result="hardAlpha"/>
<feOffset/>
<feGaussianBlur stdDeviation="0.5"/>
<feColorMatrix type="matrix" values="0 0 0 0 0.170868 0 0 0 0 0.225854 0 0 0 0 0.445799 0 0 0 0.05 0"/>
<feBlend mode="normal" in2="effect3_dropShadow_403_9270" result="effect4_dropShadow_403_9270"/>
<feBlend mode="normal" in="SourceGraphic" in2="effect4_dropShadow_403_9270" result="shape"/>
</filter>
<radialGradient id="paint0_radial_403_9270" cx="0" cy="0" r="1" gradientUnits="userSpaceOnUse" gradientTransform="translate(336.052 742.186) rotate(180) scale(762.441 723.584)">
<stop stop-color="#EDECF3"/>
<stop offset="1" stop-color="#E6E5F5" stop-opacity="0.01"/>
</radialGradient>
<linearGradient id="paint1_linear_403_9270" x1="309.465" y1="81.405" x2="372.399" y2="216.485" gradientUnits="userSpaceOnUse">
<stop stop-color="white"/>
<stop offset="1" stop-color="white" stop-opacity="0.38"/>
</linearGradient>
<clipPath id="clip0_403_9270">
<path d="M123.248 16C123.248 7.16344 130.412 0 139.248 0H540C548.837 0 556 7.16344 556 16V288.148C556 296.985 548.837 304.148 540 304.148H139.248C130.412 304.148 123.248 296.985 123.248 288.148V16Z" fill="white"/>
</clipPath>
<clipPath id="clip1_403_9270">
<rect width="432.752" height="304.396" fill="white" transform="translate(123.248 -0.24025)"/>
</clipPath>
</defs>
</svg>
